<?xml version="1.0" standalone="no"?>
<!DOCTYPE svg PUBLIC "-//W3C//DTD SVG 1.1//EN" "http://www.w3.org/Graphics/SVG/1.1/DTD/svg11.dtd" >
<svg xmlns="http://www.w3.org/2000/svg" xmlns:xlink="http://www.w3.org/1999/xlink" version="1.1">
<metadata>
Created by FontForge 20190801 at Wed Oct  7 10:31:24 2009
 By Jimmy Wärting
Copyright (c) 2008 by 1508 A/S. All rights reserved.
</metadata>
<defs>
<font id="AUPassata-Bold" horiz-adv-x="570" >
  <font-face 
    font-family="AU Passata"
    font-weight="700"
    font-stretch="normal"
    units-per-em="1000"
    panose-1="2 11 8 3 3 5 2 3 8 4"
    ascent="800"
    descent="-200"
    x-height="500"
    cap-height="700"
    bbox="-134 -250 1021 930"
    underline-thickness="50"
    underline-position="-100"
    unicode-range="U+0020-FB04"
  />
<missing-glyph horiz-adv-x="200" 
 />
    <glyph glyph-name=".notdef" horiz-adv-x="200" 
 />
    <glyph glyph-name=".null" horiz-adv-x="0" 
 />
    <glyph glyph-name="nonmarkingreturn" horiz-adv-x="200" 
 />
    <glyph glyph-name="space" unicode=" " horiz-adv-x="240" 
 />
    <glyph glyph-name="exclam" unicode="!" horiz-adv-x="350" 
d="M110 700h130v-500h-130v500zM110 130h130v-130h-130v130z" />
    <glyph glyph-name="quotedbl" unicode="&#x22;" horiz-adv-x="370" 
d="M229 454l-16 246h114l-16 -246h-82zM61 454l-16 246h114l-16 -246h-82z" />
    <glyph glyph-name="numbersign" unicode="#" horiz-adv-x="571" 
d="M100 200h-85v101h99l11 98h-87v101h101l26 200h110l-26 -200h104l26 200h111l-26 -200h97v-101h-110l-11 -98h99v-101h-113l-25 -200h-112l25 200h-103l-25 -200h-111zM328 301l11 98h-103l-11 -98h103z" />
    <glyph glyph-name="dollar" unicode="$" 
d="M234 -9q-38 8 -70 26.5t-55 46t-36 63.5t-13 78h130q0 -20 8 -38t21.5 -31.5t32 -22t41.5 -8.5q51 0 79.5 23.5t28.5 65.5q0 21 -11 36.5t-29 28t-40.5 22.5t-45.5 19q-39 15 -74 32t-62 41t-42.5 58.5t-15.5 84.5q0 35 11 66t31 56t48 43t63 27v92h120v-93
q68 -17 108.5 -67.5t40.5 -119.5h-130q-1 32 -23 53.5t-57 21.5t-58.5 -22t-23.5 -57q0 -18 9.5 -32t25.5 -25.5t37.5 -21.5t44.5 -20q39 -18 76 -35t65 -40.5t45 -56t17 -80.5q0 -42 -13 -78t-36.5 -63.5t-56 -46t-71.5 -26.5v-91h-120v91z" />
    <glyph glyph-name="percent" unicode="%" horiz-adv-x="727" 
d="M25 560q0 31 12 58.5t32 47.5t47.5 32t58.5 12t58.5 -12t47.5 -32t32 -47.5t12 -58.5t-12 -58.5t-32 -47.5t-47.5 -32t-58.5 -12t-58.5 12t-47.5 32t-32 47.5t-12 58.5zM119 560q0 -24 16 -41t40 -17t40 17t16 41t-16 41t-40 17t-40 -17t-16 -41zM129 0l354 700h112
l-355 -700h-111zM403 140q0 31 12 58.5t32 47.5t47.5 32t58.5 12t58.5 -12t47.5 -32t32 -47.5t12 -58.5t-12 -58.5t-32 -47.5t-47.5 -32t-58.5 -12t-58.5 12t-47.5 32t-32 47.5t-12 58.5zM497 140q0 -24 16 -41t40 -17t40 17t16 41t-16 41t-40 17t-40 -17t-16 -41z" />
    <glyph glyph-name="ampersand" unicode="&#x26;" horiz-adv-x="730" 
d="M470 106q-22 -25 -45 -47t-49 -38.5t-55.5 -26t-64.5 -9.5q-52 0 -94 15.5t-71 43.5t-45 67.5t-16 86.5q0 22 5 49t19 55.5t39 56.5t64 54q-21 20 -33.5 36.5t-19.5 32.5t-9.5 31.5t-2.5 33.5q0 34 13.5 64.5t37.5 53.5t57 36.5t73 13.5q39 0 71.5 -13.5t56 -37.5t37 -56
t13.5 -69q0 -26 -8.5 -48.5t-22 -42t-31 -35t-34.5 -28.5l111 -111l97 109h158l-172 -188l201 -195h-170zM244 326q-26 -19 -43.5 -37.5t-27.5 -35.5t-14 -31t-4 -24q0 -38 27.5 -65.5t70.5 -27.5q30 0 62 21.5t67 60.5zM267 470q26 18 43.5 34t17.5 38q0 26 -16 41.5
t-42 15.5q-22 0 -37.5 -16.5t-15.5 -35.5q0 -17 10.5 -32.5t39.5 -44.5z" />
    <glyph glyph-name="quotesingle" unicode="'" horiz-adv-x="220" 
d="M69 454l-16 246h114l-16 -246h-82z" />
    <glyph glyph-name="parenleft" unicode="(" horiz-adv-x="344" 
d="M251 -130q-54 0 -90.5 32t-59 92.5t-32 148.5t-9.5 200t9.5 202t32 153.5t59 97.5t90.5 34h43v-100h-27q-27 0 -47 -22t-33.5 -69t-20 -120.5t-6.5 -175.5q0 -103 6.5 -174t20 -115.5t33.5 -64t47 -19.5h27v-100h-43z" />
    <glyph glyph-name="parenright" unicode=")" horiz-adv-x="342" 
d="M48 -130v100h27q27 0 47 19.5t33.5 64t20 115.5t6.5 174q0 102 -6.5 175.5t-20 120.5t-33.5 69t-47 22h-27v100h43q54 0 90.5 -34t59 -97.5t32 -153.5t9.5 -202t-9.5 -200t-32 -148.5t-59 -92.5t-90.5 -32h-43z" />
    <glyph glyph-name="asterisk" unicode="*" horiz-adv-x="389" 
d="M124 518l-95 27l28 89l95 -35l-4 101h94l-3 -101l95 35l27 -89l-95 -28l61 -79l-77 -55l-55 81l-55 -81l-78 55z" />
    <glyph glyph-name="plus" unicode="+" 
d="M225 207h-165v114h165v179h120v-179h165v-114h-165v-179h-120v179z" />
    <glyph glyph-name="comma" unicode="," horiz-adv-x="220" 
d="M45 -87q31 7 44.5 29.5t13.5 57.5h-58v130h130v-121q0 -37 -11 -62.5t-29 -42t-41.5 -25t-48.5 -11.5v45z" />
    <glyph glyph-name="hyphen" unicode="-" horiz-adv-x="370" 
d="M60 321h250v-114h-250v114z" />
    <glyph glyph-name="period" unicode="." horiz-adv-x="220" 
d="M45 130h130v-130h-130v130z" />
    <glyph glyph-name="slash" unicode="/" horiz-adv-x="486" 
d="M364 700h112l-355 -700h-111z" />
    <glyph glyph-name="zero" unicode="0" 
d="M45 451q0 67 18.5 117t51 82.5t77.5 48.5t98 16q52 0 97 -16t78 -48.5t51.5 -82.5t18.5 -117v-202q0 -69 -19 -119t-52 -82t-78 -47.5t-96 -15.5q-53 0 -98 16t-77.5 48.5t-51 82t-18.5 117.5v202zM175 246q5 -141 115 -141q109 0 115 141q0 9 1 21q0 11 0.5 27.5
t0.5 39.5t-0.5 52.5t-1.5 66.5q-6 142 -115 142q-57 0 -85 -36.5t-30 -105.5q-1 -37 -1.5 -66.5t-0.5 -52.5v-39.5t1 -27.5q0 -12 1 -21z" />
    <glyph glyph-name="one" unicode="1" 
d="M260 580h-156v120h286v-700h-130v580z" />
    <glyph glyph-name="two" unicode="2" 
d="M527 120v-120h-477q74 99 136 181q26 35 52 69t47.5 62.5t36.5 49t20 26.5q19 24 32.5 53t13.5 54q0 41 -25 70.5t-65 29.5q-41 0 -66.5 -27t-25.5 -78h-130q0 50 17.5 91.5t47.5 71t70.5 46t86.5 16.5t86 -17.5t70 -47.5t47 -70t17 -85q0 -48 -20.5 -94t-59.5 -99
l-24 -32t-34 -44.5t-40.5 -52t-41.5 -53.5h229z" />
    <glyph glyph-name="three" unicode="3" 
d="M186 220q0 -49 26 -82t78 -33q19 0 36 8t30 21.5t20 31t7 37.5q0 21 -7.5 39.5t-21 32.5t-32.5 22.5t-42 8.5v116q41 0 65 25.5t24 61.5q0 17 -6 32.5t-17 27.5t-25.5 19t-30.5 7q-17 0 -33.5 -6.5t-29.5 -19t-20.5 -32.5t-7.5 -47h-130q0 53 16 94.5t45.5 70.5t70 44.5
t89.5 15.5q43 0 81 -16t66.5 -44t45 -65.5t16.5 -80.5q0 -45 -22 -83t-53 -59q35 -20 62 -62.5t27 -101.5q0 -45 -17.5 -85t-48 -69.5t-71 -46.5t-86.5 -17q-111 0 -172.5 63t-61.5 172h130z" />
    <glyph glyph-name="four" unicode="4" 
d="M285 700h136l-206 -415h154v175h130v-460h-130v165h-348z" />
    <glyph glyph-name="five" unicode="5" 
d="M169 220q0 -51 30 -82t77 -31q23 0 42.5 9t34 24t22.5 35.5t8 44.5q0 50 -29.5 83t-77.5 33q-26 0 -49.5 -10.5t-46.5 -33.5h-117l39 408h365v-120h-248l-14 -143q20 8 40 12.5t41 4.5q51 0 92.5 -16.5t71.5 -47t46.5 -74t16.5 -96.5q0 -49 -18.5 -91.5t-51 -74
t-75.5 -50t-92 -18.5t-92 16.5t-75.5 46.5t-51 73.5t-18.5 97.5h130z" />
    <glyph glyph-name="six" unicode="6" 
d="M440 700l-146 -245q48 -1 90.5 -19.5t74.5 -50t50.5 -74t18.5 -90.5q0 -49 -19 -92t-51.5 -75t-75.5 -50.5t-92 -18.5q-50 0 -93.5 18.5t-75.5 50.5t-51 75t-19 92q0 30 8 59t22 55l211 365h148zM290 105q22 0 42 9t34.5 25t23 37t8.5 45t-8.5 44.5t-23 36t-34.5 24.5
t-42 9q-49 0 -79 -32t-30 -82q0 -24 8.5 -45t23 -37t34.5 -25t43 -9z" />
    <glyph glyph-name="seven" unicode="7" 
d="M355 580h-313v120h512l-359 -700h-139z" />
    <glyph glyph-name="eight" unicode="8" 
d="M131 367q-31 21 -53.5 59t-22.5 83q0 43 17 80.5t46 65.5t67.5 44t81.5 16t81 -16t66.5 -44t45.5 -65.5t17 -80.5q0 -45 -22.5 -83t-53.5 -59q17 -11 33.5 -28.5t29 -39t20 -46.5t7.5 -50q0 -45 -18 -85t-48.5 -69.5t-71 -46.5t-86.5 -17t-87 17t-71.5 46.5t-48.5 69.5
t-18 85q0 25 7.5 50t20 46.5t28.5 39t33 28.5zM267 105q19 0 36.5 8t30.5 21.5t20.5 31t7.5 37.5q0 21 -7.5 39t-20.5 32t-30.5 22t-36.5 8q-20 0 -37.5 -8t-30.5 -22t-20.5 -32t-7.5 -39q0 -20 7.5 -37.5t20.5 -31t30.5 -21.5t37.5 -8zM267 424q33 0 57 24.5t24 60.5
q0 17 -6.5 32.5t-17.5 27.5t-26 19t-31 7q-35 0 -59 -25.5t-24 -60.5q0 -36 24 -60.5t59 -24.5z" />
    <glyph glyph-name="nine" unicode="9" horiz-adv-x="579" 
d="M278 245q-48 1 -90.5 19.5t-74.5 50t-50.5 74t-18.5 90.5q0 49 19 92t51.5 75t75.5 50.5t92 18.5t93 -18.5t76 -50.5t51 -75t19 -92q0 -31 -8.5 -61t-27.5 -63l-205 -355h-148zM282 365q49 0 79 32t30 82q0 24 -8.5 45t-23 37t-34.5 25t-43 9t-42.5 -9t-34 -25t-23 -37
t-8.5 -45t8.5 -44.5t23 -36t34 -24.5t42.5 -9z" />
    <glyph glyph-name="colon" unicode=":" horiz-adv-x="220" 
d="M45 130h130v-130h-130v130zM45 500h130v-130h-130v130z" />
    <glyph glyph-name="semicolon" unicode=";" horiz-adv-x="220" 
d="M45 -87q31 7 44.5 29.5t13.5 57.5h-58v130h130v-121q0 -37 -11 -62.5t-29 -42t-41.5 -25t-48.5 -11.5v45zM45 500h130v-130h-130v130z" />
    <glyph glyph-name="less" unicode="&#x3c;" 
d="M60 296l450 191v-122l-294 -115l294 -116v-122l-450 192v92z" />
    <glyph glyph-name="equal" unicode="=" 
d="M60 218h450v-114h-450v114zM60 424h450v-114h-450v114z" />
    <glyph glyph-name="greater" unicode="&#x3e;" 
d="M60 12v122l294 116l-294 115v122l450 -191v-92z" />
    <glyph glyph-name="question" unicode="?" horiz-adv-x="503" 
d="M178 129h130v-129h-130v129zM178 195q0 56 9.5 91t25 58t34.5 38t39 30q24 19 40.5 37.5t16.5 51.5q0 40 -24.5 67t-70.5 27q-21 0 -37.5 -8t-27.5 -21.5t-17 -30.5t-6 -35h-130q0 42 16 81t45 68.5t69 47.5t88 18t89 -15.5t71.5 -44t47.5 -67.5t17 -87q0 -35 -8.5 -60.5
t-22.5 -45.5t-31 -35.5t-35 -30.5q-14 -11 -26 -20.5t-21.5 -23.5t-15 -35t-5.5 -55h-130z" />
    <glyph glyph-name="at" unicode="@" horiz-adv-x="856" 
d="M424 132q29 0 50.5 11t35.5 29t21 40t7 44t-7.5 42.5t-22.5 36t-36 24.5t-48 9q-25 0 -46 -9.5t-36 -25t-23.5 -36.5t-8.5 -44q0 -24 8 -46t22.5 -38.5t35.5 -26.5t48 -10zM428 -129q-77 0 -146 29t-121 80t-83 120t-31 148q0 80 30 149.5t81.5 121.5t121 81.5
t149.5 29.5q79 0 147 -28t117.5 -78.5t77.5 -121t28 -155.5q0 -58 -10.5 -98.5t-28.5 -65.5t-42.5 -36.5t-52.5 -11.5q-32 0 -61 13.5t-44 41.5q-30 -34 -67.5 -47.5t-68.5 -13.5q-51 0 -91.5 19t-69 50t-43.5 71.5t-15 83.5q0 41 15.5 80.5t44 70t69 49t90.5 18.5
q47 0 87 -16t69 -44.5t45.5 -68t16.5 -86.5v-85q0 -33 23 -33q7 0 12 4t9 15.5t6 33t2 56.5q0 63 -20 114.5t-55 89t-84 58t-106 20.5t-108 -22.5t-88.5 -60.5t-59.5 -89.5t-22 -108.5t22 -107.5t60 -87.5t88.5 -58.5t106.5 -21.5v-102z" />
    <glyph glyph-name="A" unicode="A" horiz-adv-x="700" 
d="M340 735l370 -735h-131l-60 120h-339l-55 -120h-135zM459 240l-116 231l-107 -231h223z" />
    <glyph glyph-name="B" unicode="B" horiz-adv-x="611" 
d="M60 700h255q58 0 101.5 -15t72.5 -41.5t43 -62t14 -76.5q0 -21 -6 -39.5t-14.5 -33.5t-18 -26t-16.5 -18q36 -25 63 -71t27 -105q0 -44 -14.5 -82.5t-44.5 -67.5t-75.5 -45.5t-106.5 -16.5h-280v700zM333 120q63 0 90.5 27t27.5 65t-25.5 65.5t-78.5 27.5h-157v-185h143z
M386 425q10 10 20 29t10 48q0 32 -24 55t-81 23h-121v-155h196z" />
    <glyph glyph-name="C" unicode="C" horiz-adv-x="736" 
d="M732 230q-18 -56 -50 -101t-76.5 -77.5t-98.5 -50t-115 -17.5q-76 0 -143 29t-117 78.5t-79 116.5t-29 142q0 76 29 143t79 116.5t117 78t143 28.5q58 0 111 -17.5t96.5 -49t75.5 -74.5t50 -95h-145q-27 52 -74.5 80.5t-113.5 28.5q-51 0 -93.5 -18t-73 -50t-47.5 -75.5
t-17 -95.5q0 -51 17 -94.5t47.5 -76t73 -50.5t93.5 -18q72 0 120.5 29t77.5 90h142z" />
    <glyph glyph-name="D" unicode="D" horiz-adv-x="671" 
d="M60 700h201q85 0 156 -26.5t122 -73t79 -111t28 -139.5t-27.5 -139.5t-79 -111t-124.5 -73t-163 -26.5h-192v700zM190 580v-460h63q68 0 117 17t81 48t47.5 73t15.5 92t-15.5 92.5t-47.5 73t-81 47.5t-117 17h-63z" />
    <glyph glyph-name="E" unicode="E" horiz-adv-x="541" 
d="M60 700h436v-120h-306v-155h278v-120h-278v-185h306v-120h-436v700z" />
    <glyph glyph-name="F" unicode="F" horiz-adv-x="518" 
d="M60 700h428v-120h-298v-155h270v-120h-270v-305h-130v700z" />
    <glyph glyph-name="G" unicode="G" horiz-adv-x="776" 
d="M392 108q97 0 148.5 40.5t66.5 111.5h-215v120h360q0 -94 -25.5 -167.5t-72 -124.5t-113.5 -77.5t-149 -26.5q-76 0 -143 29t-117 78.5t-79 116.5t-29 142q0 76 29 143t79 116.5t117 78t143 28.5q61 0 114.5 -17.5t97 -49t75 -74.5t49.5 -95h-143q-26 52 -74 82t-119 30
q-51 0 -94 -18.5t-74 -51t-48.5 -76.5t-17.5 -96q0 -51 17.5 -95t48.5 -77t74 -51.5t94 -18.5z" />
    <glyph glyph-name="H" unicode="H" horiz-adv-x="672" 
d="M60 700h130v-275h292v275h130v-700h-130v305h-292v-305h-130v700z" />
    <glyph glyph-name="I" unicode="I" horiz-adv-x="250" 
d="M60 700h130v-700h-130v700z" />
    <glyph glyph-name="J" unicode="J" horiz-adv-x="483" 
d="M128 205q0 -49 22 -74.5t59 -25.5q42 0 63.5 27t21.5 87v481h129v-495q0 -49 -13 -89.5t-39.5 -69.5t-66.5 -45t-94 -16q-98 0 -154 53.5t-56 166.5h128z" />
    <glyph glyph-name="K" unicode="K" horiz-adv-x="656" 
d="M210 364l269 336h160l-273 -336l299 -364h-160zM60 700h130v-700h-130v700z" />
    <glyph glyph-name="L" unicode="L" horiz-adv-x="479" 
d="M60 0v700h130v-580h279v-120h-409z" />
    <glyph glyph-name="M" unicode="M" horiz-adv-x="778" 
d="M60 725l330 -367l328 367v-725h-130v407l-198 -230l-200 231v-408h-130v725z" />
    <glyph glyph-name="N" unicode="N" horiz-adv-x="708" 
d="M60 725l458 -453v428h130v-725l-458 449v-424h-130v725z" />
    <glyph glyph-name="O" unicode="O" horiz-adv-x="783" 
d="M24 350q0 76 29 143t79 116.5t117 78t143 28.5t142.5 -28.5t116.5 -78t79 -116.5t29 -143q0 -75 -29 -142t-79 -116.5t-116.5 -78.5t-142.5 -29t-143 29t-117 78.5t-79 116.5t-29 142zM392 589q-51 0 -93.5 -18t-73 -50t-47.5 -75.5t-17 -95.5q0 -51 17 -94.5t47.5 -76
t73 -50.5t93.5 -18t93.5 18t72.5 50.5t47 76t17 94.5q0 52 -17 95.5t-47 75.5t-72.5 50t-93.5 18z" />
    <glyph glyph-name="P" unicode="P" horiz-adv-x="579" 
d="M60 700h274q56 0 99.5 -17.5t73.5 -47.5t46 -70t16 -85q0 -44 -16 -84t-46 -70t-73.5 -48t-99.5 -18h-144v-260h-130v700zM329 380q28 0 49.5 8.5t35 22.5t20.5 32t7 37q0 40 -27.5 70t-84.5 30h-139v-200h139z" />
    <glyph glyph-name="Q" unicode="Q" horiz-adv-x="799" 
d="M591 43q-43 -28 -93.5 -43.5t-105.5 -15.5q-76 0 -143 29t-117 78.5t-79 116.5t-29 142q0 76 29 143t79 116.5t117 78t143 28.5t142.5 -28.5t116.5 -78t79 -116.5t29 -143q0 -64 -21 -121.5t-58 -105.5l129 -123h-170zM453 171v170l135 -129q19 29 29 64t10 74
q0 52 -17.5 96.5t-49 77t-74.5 51t-94 18.5t-94 -18.5t-74.5 -51t-49 -77t-17.5 -96.5q0 -51 17.5 -95.5t49 -77.5t74.5 -52t94 -19q29 0 55.5 6.5t49.5 17.5z" />
    <glyph glyph-name="R" unicode="R" horiz-adv-x="627" 
d="M60 700h273q61 0 107.5 -16t77.5 -44.5t46.5 -68t15.5 -86.5q0 -36 -10 -70.5t-31 -63t-52.5 -50t-73.5 -32.5l189 -269h-153l-183 260h-76v-260h-130v700zM334 380q31 0 53 9t36 23.5t20.5 33.5t6.5 39q0 40 -30.5 67.5t-85.5 27.5h-144v-200h144z" />
    <glyph glyph-name="S" unicode="S" horiz-adv-x="541" 
d="M173 205q0 -20 8 -38t21.5 -32t32 -22.5t41.5 -8.5q51 0 79.5 24t28.5 66q0 21 -11 36.5t-29 28t-40.5 22.5t-45.5 19q-39 15 -74 32t-62 41t-42.5 58.5t-15.5 84.5q0 42 15.5 78.5t44 63.5t67 42.5t85.5 15.5t86 -15t66.5 -41t42.5 -62t15 -78h-130q-1 32 -23 54t-57 22
t-58.5 -22.5t-23.5 -57.5q0 -18 9.5 -32t25.5 -25.5t37.5 -21.5t44.5 -20q39 -18 76 -35t65 -40.5t45 -56t17 -80.5q0 -50 -18 -91t-50 -70t-75.5 -44.5t-94.5 -15.5q-50 0 -92.5 15.5t-73.5 44.5t-49 70t-18 91h130z" />
    <glyph glyph-name="T" unicode="T" horiz-adv-x="526" 
d="M198 580h-188v120h506v-120h-188v-580h-130v580z" />
    <glyph glyph-name="U" unicode="U" horiz-adv-x="672" 
d="M60 700h132v-426q0 -81 36 -124t108 -43t107 43t35 124v426h134v-438q0 -65 -19.5 -116.5t-55.5 -87.5t-87 -55t-114 -19t-114 19t-87 55t-55.5 87.5t-19.5 116.5v438z" />
    <glyph glyph-name="V" unicode="V" horiz-adv-x="653" 
d="M-10 700h140l204 -447l190 447h139l-325 -735z" />
    <glyph glyph-name="W" unicode="W" horiz-adv-x="990" 
d="M-10 700h140l187 -438l180 468l197 -465l167 435h139l-305 -735l-197 442l-180 -442z" />
    <glyph glyph-name="X" unicode="X" horiz-adv-x="678" 
d="M256 361l-230 339h155l158 -239l159 239h155l-231 -339l256 -361h-159l-180 261l-179 -261h-160z" />
    <glyph glyph-name="Y" unicode="Y" horiz-adv-x="642" 
d="M257 303l-257 397h153l169 -270l169 270h151l-255 -398v-302h-130v303z" />
    <glyph glyph-name="Z" unicode="Z" horiz-adv-x="623" 
d="M372 580h-315v120h544l-371 -580h373v-120h-603z" />
    <glyph glyph-name="bracketleft" unicode="[" horiz-adv-x="330" 
d="M75 830h215v-100h-115v-760h115v-100h-215v960z" />
    <glyph glyph-name="backslash" unicode="\" horiz-adv-x="486" 
d="M365 0l-355 700h112l354 -700h-111z" />
    <glyph glyph-name="bracketright" unicode="]" horiz-adv-x="340" 
d="M50 -130v100h115v760h-115v100h215v-960h-215z" />
    <glyph glyph-name="asciicircum" unicode="^" horiz-adv-x="466" 
d="M144 350h-114l140 350h127l139 -350h-114l-90 222z" />
    <glyph glyph-name="underscore" unicode="_" horiz-adv-x="500" 
d="M0 -42h500v-114h-500v114z" />
    <glyph glyph-name="grave" unicode="`" horiz-adv-x="398" 
d="M208 700l121 -110h-149l-118 110h146z" />
    <glyph glyph-name="a" unicode="a" horiz-adv-x="588" 
d="M418 38q-29 -21 -64 -34.5t-73 -13.5q-54 0 -102 20.5t-83 55.5t-55.5 82.5t-20.5 101.5t20.5 101.5t55.5 82.5t83 55.5t102 20.5q37 0 72.5 -13.5t64.5 -34.5v38h120v-500h-120v38zM418 330q-2 3 -11 13.5t-25 21.5t-39.5 20t-56.5 9q-31 0 -57 -11.5t-45.5 -31
t-30.5 -45.5t-11 -56t11 -56t30.5 -45.5t45.5 -31t57 -11.5q35 0 60 10t41 23q18 14 31 33v158z" />
    <glyph glyph-name="b" unicode="b" horiz-adv-x="588" 
d="M50 700h120v-238q29 21 64 34.5t73 13.5q54 0 102 -20.5t83 -55.5t55.5 -82.5t20.5 -101.5t-20.5 -101.5t-55.5 -82.5t-83 -55.5t-102 -20.5q-38 0 -73 13.5t-64 34.5v-38h-120v700zM170 172q13 -19 31 -33q16 -13 41 -23t60 -10q31 0 57 11.5t45.5 31t30.5 45.5t11 56
t-11 56t-30.5 45.5t-45.5 31t-57 11.5q-32 0 -55.5 -8.5t-39.5 -19.5t-25 -21.5t-12 -14.5v-158z" />
    <glyph glyph-name="c" unicode="c" horiz-adv-x="532" 
d="M522 170q-11 -40 -34.5 -73t-55 -57t-70.5 -37t-81 -13q-54 0 -102 20.5t-83 55.5t-55.5 82.5t-20.5 101.5t20.5 101.5t55.5 82.5t83 55.5t102 20.5q42 0 80.5 -13t70 -37t54.5 -57t34 -73h-134q-13 30 -42.5 46.5t-62.5 16.5q-30 0 -55 -11t-43.5 -30.5t-29 -45.5
t-10.5 -56t10.5 -55.5t29 -44.5t43.5 -30t55 -11q33 0 63 15.5t44 45.5h134z" />
    <glyph glyph-name="d" unicode="d" horiz-adv-x="588" 
d="M418 38q-29 -21 -64 -34.5t-73 -13.5q-54 0 -102 20.5t-83 55.5t-55.5 82.5t-20.5 101.5t20.5 101.5t55.5 82.5t83 55.5t102 20.5q37 0 72.5 -13.5t64.5 -34.5v238h120v-700h-120v38zM418 330q-2 3 -11 13.5t-25 21.5t-39.5 20t-56.5 9q-31 0 -57 -11.5t-45.5 -31
t-30.5 -45.5t-11 -56t11 -56t30.5 -45.5t45.5 -31t57 -11.5q35 0 60 10t41 23q18 14 31 33v158z" />
    <glyph glyph-name="e" unicode="e" horiz-adv-x="576" 
d="M535 150q-17 -40 -44 -70t-60 -50t-70.5 -30t-74.5 -10q-54 0 -101 20.5t-81.5 55.5t-54 82.5t-19.5 101.5t19.5 101.5t54 82.5t81.5 55.5t101 20.5t98 -16.5t76 -46t52.5 -69t27.5 -84.5q4 -23 5 -45.5t1 -48.5h-390q3 -20 15.5 -38.5t30.5 -32t40 -21.5t44 -8
q32 0 53.5 7.5t35.5 17.5q16 11 26 25h134zM414 293q-3 21 -12.5 40t-26 33.5t-39 23t-50.5 8.5q-26 0 -48.5 -9t-40 -23.5t-29 -33t-14.5 -39.5h260z" />
    <glyph glyph-name="f" unicode="f" horiz-adv-x="324" 
d="M84 386h-74v114h74v18q0 46 13 80t36 56.5t54.5 34t69.5 11.5h47v-114h-37q-11 0 -22 -3.5t-20 -11t-15 -19t-6 -28.5v-24h100v-114h-100v-386h-120v386z" />
    <glyph glyph-name="g" unicode="g" horiz-adv-x="588" 
d="M255 -86h18q78 0 111.5 30t33.5 90v4q-29 -21 -64 -34.5t-73 -13.5q-54 0 -102 20.5t-83 55.5t-55.5 82.5t-20.5 101.5t20.5 101.5t55.5 82.5t83 55.5t102 20.5q37 0 72.5 -13.5t64.5 -34.5v38h120v-448q0 -125 -65.5 -188.5t-199.5 -63.5h-18v114zM418 330
q-2 3 -11 13.5t-25 21.5t-39.5 20t-56.5 9q-31 0 -57 -11.5t-45.5 -31t-30.5 -45.5t-11 -56t11 -56t30.5 -45.5t45.5 -31t57 -11.5q35 0 60 10t41 23q18 14 31 33v158z" />
    <glyph glyph-name="h" unicode="h" horiz-adv-x="578" 
d="M50 700h120v-238q29 21 65 34.5t74 13.5q116 0 172.5 -62.5t56.5 -177.5v-270h-122v270q0 57 -26 91t-88 34q-28 0 -50 -7t-38.5 -17.5t-27.5 -21.5t-16 -20v-329h-120v700z" />
    <glyph glyph-name="i" unicode="i" horiz-adv-x="220" 
d="M50 500h120v-500h-120v500zM50 700h120v-120h-120v120z" />
    <glyph glyph-name="j" unicode="j" horiz-adv-x="227" 
d="M57 700h120v-120h-120v120zM-30 -200v114h17q13 0 25.5 3.5t22.5 12.5t16 24t6 38v508h120v-504q0 -54 -13.5 -91.5t-36.5 -60.5t-54 -33.5t-66 -10.5h-37z" />
    <glyph glyph-name="k" unicode="k" horiz-adv-x="539" 
d="M50 700h120v-700h-120v700zM185 260l200 240h156l-201 -240l222 -260h-159z" />
    <glyph glyph-name="l" unicode="l" horiz-adv-x="220" 
d="M50 700h120v-700h-120v700z" />
    <glyph glyph-name="m" unicode="m" horiz-adv-x="887" 
d="M50 0v500h120v-37q26 20 59 33.5t70 13.5q114 0 166 -69q29 31 76 50t97 19q103 0 156 -59.5t53 -170.5v-280h-122v280q0 53 -25.5 84t-70.5 31q-33 0 -56 -10t-37 -22t-21 -23t-7 -12v-328h-122v280q0 53 -24.5 84t-71.5 31q-32 0 -54 -9t-36 -20.5t-21.5 -22
t-8.5 -13.5v-330h-120z" />
    <glyph glyph-name="n" unicode="n" horiz-adv-x="568" 
d="M50 500h120v-38q29 21 65 34.5t74 13.5q107 0 163 -62.5t56 -177.5v-270h-122v270q0 57 -25.5 91t-78.5 34q-28 0 -50 -7t-38.5 -17.5t-27.5 -21.5t-16 -20v-329h-120v500z" />
    <glyph glyph-name="o" unicode="o" horiz-adv-x="560" 
d="M20 250q0 54 20.5 101.5t55.5 82.5t82.5 55.5t101.5 20.5t101.5 -20.5t82.5 -55.5t55.5 -82.5t20.5 -101.5t-20.5 -101.5t-55.5 -82.5t-82.5 -55.5t-101.5 -20.5t-101.5 20.5t-82.5 55.5t-55.5 82.5t-20.5 101.5zM280 107q31 0 56 11t43 30t27.5 45t9.5 57t-9.5 57
t-27.5 45t-43 30t-56 11t-56 -11t-43 -30t-28 -45t-10 -57t10 -57t28 -45t43 -30t56 -11z" />
    <glyph glyph-name="p" unicode="p" horiz-adv-x="588" 
d="M50 500h120v-38q29 21 64 34.5t73 13.5q54 0 102 -20.5t83 -55.5t55.5 -82.5t20.5 -101.5t-20.5 -101.5t-55.5 -82.5t-83 -55.5t-102 -20.5q-38 0 -73 13.5t-64 34.5v-238h-120v700zM170 172q13 -19 31 -33q16 -13 41 -23t60 -10q31 0 57 11.5t45.5 31t30.5 45.5t11 56
t-11 56t-30.5 45.5t-45.5 31t-57 11.5q-32 0 -55.5 -8.5t-39.5 -19.5t-25 -21.5t-12 -14.5v-158z" />
    <glyph glyph-name="q" unicode="q" horiz-adv-x="588" 
d="M418 38q-29 -21 -64 -34.5t-73 -13.5q-54 0 -102 20.5t-83 55.5t-55.5 82.5t-20.5 101.5t20.5 101.5t55.5 82.5t83 55.5t102 20.5q37 0 72.5 -13.5t64.5 -34.5v38h120v-700h-120v238zM418 330q-2 3 -11 13.5t-25 21.5t-39.5 20t-56.5 9q-31 0 -57 -11.5t-45.5 -31
t-30.5 -45.5t-11 -56t11 -56t30.5 -45.5t45.5 -31t57 -11.5q35 0 60 10t41 23q18 14 31 33v158z" />
    <glyph glyph-name="r" unicode="r" horiz-adv-x="324" 
d="M50 500h120v-56q19 23 45.5 39.5t64.5 16.5h34v-114h-26q-37 0 -70 -23t-48 -64v-299h-120v500z" />
    <glyph glyph-name="s" unicode="s" horiz-adv-x="422" 
d="M147 170q1 -26 17 -47t48 -21q26 0 44.5 14t18.5 38q0 23 -23 34.5t-75 25.5q-26 7 -49.5 18t-42 28.5t-29 40.5t-10.5 54q0 36 13.5 64.5t36.5 48.5t54 30.5t66 10.5t66 -13t54 -35t36.5 -51t13.5 -60h-121q-1 23 -15.5 35.5t-33.5 12.5t-33.5 -12.5t-14.5 -30.5
q0 -22 23 -35t81 -29q26 -7 48.5 -18t39 -27t26 -38.5t9.5 -53.5q0 -33 -14.5 -62.5t-39 -52t-58 -35.5t-71.5 -13q-36 0 -68.5 13t-57.5 36.5t-41 56.5t-18 73h120z" />
    <glyph glyph-name="t" unicode="t" horiz-adv-x="334" 
d="M84 631h120v-131h100v-114h-100v-210q0 -62 59 -62h41v-114h-57q-76 0 -119.5 39t-43.5 133v214h-74v114h74v131z" />
    <glyph glyph-name="u" unicode="u" horiz-adv-x="568" 
d="M398 0v36q-26 -20 -59.5 -33t-69.5 -13q-116 0 -167.5 62.5t-51.5 177.5v270h122v-270q0 -29 4.5 -52t16.5 -39t32 -25t51 -9t53.5 9t37 20t31.5 36v330h120v-500h-120z" />
    <glyph glyph-name="v" unicode="v" horiz-adv-x="521" 
d="M-5 500h135l134 -274l130 274h132l-261 -520z" />
    <glyph glyph-name="w" unicode="w" horiz-adv-x="776" 
d="M-5 500h135l130 -276l130 291l138 -291l125 276h128l-254 -520l-137 267l-130 -267z" />
    <glyph glyph-name="x" unicode="x" horiz-adv-x="501" 
d="M169 256l-166 244h142l102 -156l97 156h139l-158 -247l181 -253h-148l-113 165l-106 -165h-144z" />
    <glyph glyph-name="y" unicode="y" horiz-adv-x="521" 
d="M40 -64h22q24 0 42 8.5t34 40.5l61 122l-204 393h135l131 -268l133 268h132l-248 -500l-37 -71q-20 -40 -41 -62t-43 -32t-44.5 -12t-46.5 -2h-26v115z" />
    <glyph glyph-name="z" unicode="z" horiz-adv-x="483" 
d="M259 386h-210v114h424l-260 -386h260v-114h-473z" />
    <glyph glyph-name="braceleft" unicode="{" horiz-adv-x="327" 
d="M245 -130q-69 0 -105 39.5t-36 121.5v213q0 23 -17 36t-42 13v101h5q23 1 38.5 13.5t15.5 35.5v226q0 82 36 121.5t105 39.5h37v-100h-37q-17 0 -29 -13t-12 -35v-226q0 -71 -33 -113q33 -41 33 -112v-213q0 -23 12 -35.5t29 -12.5h37v-100h-37z" />
    <glyph glyph-name="bar" unicode="|" horiz-adv-x="480" 
d="M180 800h120v-900h-120v900z" />
    <glyph glyph-name="braceright" unicode="}" horiz-adv-x="327" 
d="M45 -30h37q17 0 29 12.5t12 35.5v213q0 72 32 112q-32 41 -32 113v226q0 22 -12 35t-29 13h-37v100h37q69 0 105 -39.5t36 -121.5v-226q0 -23 17 -36t42 -13v-101q-25 0 -42 -13t-17 -36v-213q0 -82 -36 -121.5t-105 -39.5h-37v100z" />
    <glyph glyph-name="asciitilde" unicode="~" 
d="M47 203q7 41 25 74q16 28 47 51t84 23q41 0 66 -15t45 -32q12 -10 26 -18.5t29 -8.5q16 0 26 7t15 16q6 11 9 24h103q-7 -41 -25 -74q-16 -28 -47 -50.5t-84 -22.5q-40 0 -64 13.5t-43 29.5q-14 12 -28 21.5t-31 9.5q-16 0 -25.5 -7.5t-15.5 -16.5q-7 -11 -10 -24h-102z
" />
    <glyph glyph-name="uni00A0" unicode="&#xa0;" horiz-adv-x="240" 
 />
    <glyph glyph-name="exclamdown" unicode="&#xa1;" horiz-adv-x="350" 
d="M110 500h130v-500h-130v500zM110 700h130v-130h-130v130z" />
    <glyph glyph-name="cent" unicode="&#xa2;" 
d="M252 -3q-44 10 -80.5 33.5t-63.5 56.5t-42 74.5t-15 88.5q0 46 15 87.5t42 75t63.5 57t80.5 33.5v107h120v-107q65 -16 112.5 -61.5t66.5 -111.5h-132q-13 30 -43.5 48t-63.5 18q-30 0 -55.5 -11.5t-44.5 -31.5t-30 -46.5t-11 -56.5t11 -56t30 -45.5t44.5 -31t55.5 -11.5
q33 0 64 17t45 47h132q-19 -66 -67.5 -112t-113.5 -61v-97h-120v97z" />
    <glyph glyph-name="sterling" unicode="&#xa3;" 
d="M48 120h22q18 2 28 18t10 43v124h-60v120h60v56q0 54 12 97.5t37.5 73.5t65 46.5t94.5 16.5q46 0 85 -15.5t67.5 -44t44 -68t15.5 -87.5h-130q0 48 -23.5 71.5t-58.5 23.5q-39 0 -59 -24.5t-20 -71.5v-74h181v-120h-181v-105q0 -27 -4 -46.5t-11 -33.5h306v-120h-481v120
z" />
    <glyph glyph-name="yen" unicode="&#xa5;" 
d="M224 230h-199v100h183l-42 70h-141v100h80l-121 200h153l79 -137l72 -127l72 127l75 137h151l-118 -200h77v-100h-136l-41 -70h177v-100h-191v-230h-130v230z" />
    <glyph glyph-name="section" unicode="&#xa7;" horiz-adv-x="465" 
d="M75 120h169q20 0 30.5 9t10.5 23q0 16 -13.5 24.5t-27.5 12.5l-82 17q-56 11 -84 45t-28 88q0 33 13.5 57t35.5 40q-23 18 -36 45t-13 65q0 30 9 57.5t29.5 49t54 34.5t83.5 13h144v-120h-149q-20 0 -30.5 -9t-10.5 -23q0 -16 13.5 -24.5t27.5 -12.5l82 -17
q56 -11 84 -45t28 -88q0 -34 -14 -57.5t-35 -40.5q22 -18 35.5 -44.5t13.5 -64.5q0 -30 -9 -57.5t-29.5 -49t-54 -34.5t-83.5 -13h-164v120zM259 306q16 5 24.5 18.5t8.5 24.5t-6 19.5t-23 13.5q-8 2 -23 4.5t-34 7.5q-16 -5 -24.5 -18.5t-8.5 -24.5t6 -19.5t23 -13.5
q7 -2 22 -5z" />
    <glyph glyph-name="dieresis" unicode="&#xa8;" horiz-adv-x="490" 
d="M75 700h130v-119h-130v119zM285 700h130v-119h-130v119z" />
    <glyph glyph-name="copyright" unicode="&#xa9;" horiz-adv-x="790" 
d="M598 281q-9 -32 -28 -59t-45 -46.5t-58 -30.5t-67 -11q-45 0 -84 17t-68.5 46.5t-46.5 68.5t-17 84q0 44 17 83t46.5 68.5t68.5 46.5t84 17q35 0 66.5 -10.5t58 -29.5t45.5 -46t28 -59h-110q-12 25 -35.5 38.5t-52.5 13.5q-25 0 -47 -9.5t-38 -26t-25 -39t-9 -47.5
q0 -26 9 -48t25 -38.5t38 -26t47 -9.5q30 0 53.5 13.5t35.5 39.5h109zM30 351q0 75 29 141t78.5 115.5t116 78.5t142.5 29t142.5 -29t116 -78.5t78.5 -115.5t29 -141q0 -76 -29 -142.5t-78.5 -116t-116 -78.5t-142.5 -29t-142.5 29t-116 78.5t-78.5 116t-29 142.5zM396 77
q55 0 104.5 21.5t86.5 59t58.5 87.5t21.5 106q0 55 -21.5 104.5t-58.5 87t-86.5 59t-104.5 21.5q-56 0 -105 -21.5t-86 -59t-58.5 -87t-21.5 -104.5q0 -56 21.5 -106t58.5 -87.5t86 -59t105 -21.5z" />
    <glyph glyph-name="ordfeminine" unicode="&#xaa;" horiz-adv-x="293" 
d="M196 448q-26 -14 -50 -14q-29 0 -53.5 10.5t-43 28.5t-29 42t-10.5 52q0 29 10.5 54t29 43.5t43 29t53.5 10.5t50 -11v7h78v-261h-78v9zM196 608q-9 8 -22.5 14t-27.5 6q-25 0 -41.5 -17.5t-16.5 -43.5q0 -23 16.5 -40t41.5 -17q14 0 28 5t22 14v79z" />
    <glyph glyph-name="guillemotleft" unicode="&#xab;" 
d="M247 250l194 200h144l-185 -201l185 -199h-144zM-18 250l194 200h144l-185 -201l185 -199h-144z" />
    <glyph glyph-name="logicalnot" unicode="&#xac;" 
d="M60 321h450v-221h-120v107h-330v114z" />
    <glyph glyph-name="registered" unicode="&#xae;" horiz-adv-x="792" 
d="M30 351q0 75 29 141t78.5 115.5t116 78.5t142.5 29t142.5 -29t116 -78.5t78.5 -115.5t29 -141q0 -76 -29 -142.5t-78.5 -116t-116 -78.5t-142.5 -29t-142.5 29t-116 78.5t-78.5 116t-29 142.5zM396 77q55 0 104.5 21.5t86.5 59t58.5 87.5t21.5 106q0 55 -21.5 104.5
t-58.5 87t-86.5 59t-104.5 21.5q-56 0 -105 -21.5t-86 -59t-58.5 -87t-21.5 -104.5q0 -56 21.5 -106t58.5 -87.5t86 -59t105 -21.5zM258 546h153q42 0 70.5 -12.5t46 -32t25.5 -44.5t8 -49q0 -35 -21.5 -68t-59.5 -51l72 -127h-112l-62 112h-24v-112h-96v384zM408 367
q34 0 45.5 13t11.5 28q0 17 -11.5 30.5t-45.5 13.5h-54v-85h54z" />
    <glyph glyph-name="macron" unicode="&#xaf;" horiz-adv-x="503" 
d="M93 700h317v-98h-317v98z" />
    <glyph glyph-name="degree" unicode="&#xb0;" horiz-adv-x="400" 
d="M50 541q0 31 12 58.5t32 47.5t47.5 32t58.5 12t58.5 -12t47.5 -32t32 -47.5t12 -58.5t-12 -58.5t-32 -47.5t-47.5 -32t-58.5 -12t-58.5 12t-47.5 32t-32 47.5t-12 58.5zM200 483q24 0 40 17t16 41t-16 41t-40 17t-40 -17t-16 -41t16 -41t40 -17z" />
    <glyph glyph-name="plusminus" unicode="&#xb1;" 
d="M60 381h165v119h120v-119h165v-114h-165v-107h-120v107h-165v114zM60 114h450v-114h-450v114z" />
    <glyph glyph-name="acute" unicode="&#xb4;" horiz-adv-x="398" 
d="M329 700l-118 -110h-149l121 110h146z" />
    <glyph glyph-name="mu" unicode="&#xb5;" horiz-adv-x="618" 
d="M60 -200v700h120v-330q5 -9 15.5 -20t26.5 -21.5t37.5 -17.5t49.5 -7t49.5 7t37.5 17.5t26.5 21.5t15.5 20v330h120v-500h-120v36q-26 -20 -59.5 -33t-69.5 -13q-37 0 -70 13t-59 33v-236h-120z" />
    <glyph glyph-name="mu" unicode="&#x3bc;" horiz-adv-x="618" 
d="M60 -200v700h120v-330q5 -9 15.5 -20t26.5 -21.5t37.5 -17.5t49.5 -7t49.5 7t37.5 17.5t26.5 21.5t15.5 20v330h120v-500h-120v36q-26 -20 -59.5 -33t-69.5 -13q-37 0 -70 13t-59 33v-236h-120z" />
    <glyph glyph-name="paragraph" unicode="&#xb6;" horiz-adv-x="599" 
d="M246 284q-53 0 -95 16t-71 44.5t-44.5 66t-15.5 81.5q0 43 15.5 81t44.5 66t71.5 44.5t95.5 16.5h292v-700h-111v583h-71v-583h-111v284zM246 583q-51 -2 -76.5 -28.5t-25.5 -62.5q0 -37 25.5 -63.5t76.5 -28.5v183z" />
    <glyph glyph-name="periodcentered" unicode="&#xb7;" horiz-adv-x="220" 
d="M45 372h130v-130h-130v130z" />
    <glyph glyph-name="cedilla" unicode="&#xb8;" horiz-adv-x="328" 
d="M130 -157h20q17 0 17 16q0 5 -2.5 10t-10.5 5h-84l51 74h43q47 0 73 -26.5t26 -62.5t-23.5 -62.5t-77.5 -26.5h-32v73z" />
    <glyph glyph-name="ordmasculine" unicode="&#xba;" horiz-adv-x="305" 
d="M19 570q0 28 10.5 53t28.5 43t42.5 28.5t52.5 10.5t53 -10.5t43.5 -28.5t29 -43t10.5 -53t-10.5 -52.5t-29 -42.5t-43.5 -28t-53 -10t-52.5 10t-42.5 28t-28.5 42.5t-10.5 52.5zM153 511q26 0 42.5 18t16.5 41q0 25 -16.5 43t-42.5 18q-23 0 -39.5 -18t-16.5 -43
q0 -23 16.5 -41t39.5 -18z" />
    <glyph glyph-name="guillemotright" unicode="&#xbb;" 
d="M-12 50l185 199l-185 201h144l194 -200l-194 -200h-144zM252 50l185 199l-185 201h144l194 -200l-194 -200h-144z" />
    <glyph glyph-name="questiondown" unicode="&#xbf;" horiz-adv-x="503" 
d="M325 571h-130v129h130v-129zM325 505q0 -56 -9.5 -91t-25 -58t-35 -38t-38.5 -30q-24 -19 -40.5 -37.5t-16.5 -51.5q0 -40 24.5 -67t70.5 -27q21 0 37.5 8t27.5 21.5t17 30.5t6 35h130q0 -42 -16 -81t-45 -68.5t-69 -47.5t-88 -18t-89 15.5t-71.5 44t-47.5 67.5t-17 87
q0 34 8.5 60t22.5 46t31 35.5t35 30.5q13 11 25.5 20.5t22 23.5t15 35t5.5 55h130z" />
    <glyph glyph-name="Agrave" unicode="&#xc0;" horiz-adv-x="700" 
d="M340 735l370 -735h-131l-60 120h-339l-55 -120h-135zM459 240l-116 231l-107 -231h223zM354 900l121 -110h-149l-118 110h146z" />
    <glyph glyph-name="Aacute" unicode="&#xc1;" horiz-adv-x="700" 
d="M340 735l370 -735h-131l-60 120h-339l-55 -120h-135zM459 240l-116 231l-107 -231h223zM475 900l-118 -110h-149l121 110h146z" />
    <glyph glyph-name="Acircumflex" unicode="&#xc2;" horiz-adv-x="700" 
d="M340 735l370 -735h-131l-60 120h-339l-55 -120h-135zM459 240l-116 231l-107 -231h223zM250 900h178l113 -110h-145l-57 60l-57 -60h-145z" />
    <glyph glyph-name="Atilde" unicode="&#xc3;" horiz-adv-x="700" 
d="M340 735l370 -735h-131l-60 120h-339l-55 -120h-135zM459 240l-116 231l-107 -231h223zM153 758q0 20 6 45t20 47.5t38.5 38t60.5 15.5q28 0 45.5 -8.5t30 -18t23.5 -18t27 -8.5q7 0 11.5 5t7.5 12.5t4.5 16t1.5 15.5h99q0 -17 -5.5 -41.5t-19 -47.5t-37 -39.5
t-60.5 -16.5q-23 0 -40.5 8.5t-32 18t-27.5 18t-26 8.5q-15 0 -21.5 -17t-6.5 -33h-99z" />
    <glyph glyph-name="Adieresis" unicode="&#xc4;" horiz-adv-x="700" 
d="M340 735l370 -735h-131l-60 120h-339l-55 -120h-135zM459 240l-116 231l-107 -231h223zM169 900h130v-119h-130v119zM379 900h130v-119h-130v119z" />
    <glyph glyph-name="Aring" unicode="&#xc5;" horiz-adv-x="700" 
d="M237 737q0 44 29 73t73 29t73 -29t29 -73q0 -31 -15.5 -55t-40.5 -37l325 -645h-131l-60 120h-339l-55 -120h-135l306 644q-27 11 -43 36t-16 57zM459 240l-116 231l-107 -231h223zM339 701q15 0 25 10.5t10 25.5t-10 25.5t-25 10.5t-25 -10.5t-10 -25.5t10 -25.5
t25 -10.5z" />
    <glyph glyph-name="AE" unicode="&#xc6;" horiz-adv-x="933" 
d="M308 700h580v-120h-286v-200h258v-120h-258v-140h286v-120h-416v260h-228l-113 -260h-136zM472 380v200h-88l-87 -200h175z" />
    <glyph glyph-name="Ccedilla" unicode="&#xc7;" horiz-adv-x="736" 
d="M741 230q-18 -56 -50 -101t-76.5 -77.5t-98.5 -50t-115 -17.5q-76 0 -143 29t-117 78.5t-79 116.5t-29 142q0 76 29 143t79 116.5t117 78t143 28.5q58 0 111 -17.5t96.5 -49t75.5 -74.5t50 -95h-145q-27 52 -74.5 80.5t-113.5 28.5q-51 0 -93.5 -18t-73 -50t-47.5 -75.5
t-17 -95.5q0 -51 17 -94.5t47.5 -76t73 -50.5t93.5 -18q72 0 120.5 29t77.5 90h142zM348 -157h20q17 0 17 16q0 5 -2.5 10t-10.5 5h-84l51 74h43q47 0 73 -26.5t26 -62.5t-23.5 -62.5t-77.5 -26.5h-32v73z" />
    <glyph glyph-name="Egrave" unicode="&#xc8;" horiz-adv-x="541" 
d="M60 700h436v-120h-306v-155h278v-120h-278v-185h306v-120h-436v700zM285 900l121 -110h-149l-118 110h146z" />
    <glyph glyph-name="Eacute" unicode="&#xc9;" horiz-adv-x="541" 
d="M60 700h436v-120h-306v-155h278v-120h-278v-185h306v-120h-436v700zM426 900l-118 -110h-149l121 110h146z" />
    <glyph glyph-name="Ecircumflex" unicode="&#xca;" horiz-adv-x="541" 
d="M60 700h436v-120h-306v-155h278v-120h-278v-185h306v-120h-436v700zM190 900h178l113 -110h-145l-57 60l-57 -60h-145z" />
    <glyph glyph-name="Edieresis" unicode="&#xcb;" horiz-adv-x="541" 
d="M60 700h436v-120h-306v-155h278v-120h-278v-185h306v-120h-436v700zM110 900h130v-119h-130v119zM320 900h130v-119h-130v119z" />
    <glyph glyph-name="Igrave" unicode="&#xcc;" horiz-adv-x="250" 
d="M60 700h130v-700h-130v700zM125 900l121 -110h-149l-118 110h146z" />
    <glyph glyph-name="Iacute" unicode="&#xcd;" horiz-adv-x="250" 
d="M60 700h130v-700h-130v700zM274 900l-118 -110h-149l121 110h146z" />
    <glyph glyph-name="Icircumflex" unicode="&#xce;" horiz-adv-x="250" 
d="M60 700h130v-700h-130v700zM41 900h178l113 -110h-145l-57 60l-57 -60h-145z" />
    <glyph glyph-name="Idieresis" unicode="&#xcf;" horiz-adv-x="250" 
d="M60 700h130v-700h-130v700zM-41 900h130v-119h-130v119zM169 900h130v-119h-130v119z" />
    <glyph glyph-name="Ntilde" unicode="&#xd1;" horiz-adv-x="708" 
d="M60 725l458 -453v428h130v-725l-458 449v-424h-130v725zM173 758q0 20 6 45t20 47.5t38.5 38t60.5 15.5q28 0 45.5 -8.5t30 -18t23.5 -18t27 -8.5q7 0 11.5 5t7.5 12.5t4.5 16t1.5 15.5h99q0 -17 -5.5 -41.5t-19 -47.5t-37 -39.5t-60.5 -16.5q-23 0 -40.5 8.5t-32 18
t-27.5 18t-26 8.5q-15 0 -21.5 -17t-6.5 -33h-99z" />
    <glyph glyph-name="Ograve" unicode="&#xd2;" horiz-adv-x="783" 
d="M24 350q0 76 29 143t79 116.5t117 78t143 28.5t142.5 -28.5t116.5 -78t79 -116.5t29 -143q0 -75 -29 -142t-79 -116.5t-116.5 -78.5t-142.5 -29t-143 29t-117 78.5t-79 116.5t-29 142zM392 589q-51 0 -93.5 -18t-73 -50t-47.5 -75.5t-17 -95.5q0 -51 17 -94.5t47.5 -76
t73 -50.5t93.5 -18t93.5 18t72.5 50.5t47 76t17 94.5q0 52 -17 95.5t-47 75.5t-72.5 50t-93.5 18zM396 900l121 -110h-149l-118 110h146z" />
    <glyph glyph-name="Oacute" unicode="&#xd3;" horiz-adv-x="783" 
d="M24 350q0 76 29 143t79 116.5t117 78t143 28.5t142.5 -28.5t116.5 -78t79 -116.5t29 -143q0 -75 -29 -142t-79 -116.5t-116.5 -78.5t-142.5 -29t-143 29t-117 78.5t-79 116.5t-29 142zM392 589q-51 0 -93.5 -18t-73 -50t-47.5 -75.5t-17 -95.5q0 -51 17 -94.5t47.5 -76
t73 -50.5t93.5 -18t93.5 18t72.5 50.5t47 76t17 94.5q0 52 -17 95.5t-47 75.5t-72.5 50t-93.5 18zM537 900l-118 -110h-149l121 110h146z" />
    <glyph glyph-name="Ocircumflex" unicode="&#xd4;" horiz-adv-x="783" 
d="M24 350q0 76 29 143t79 116.5t117 78t143 28.5t142.5 -28.5t116.5 -78t79 -116.5t29 -143q0 -75 -29 -142t-79 -116.5t-116.5 -78.5t-142.5 -29t-143 29t-117 78.5t-79 116.5t-29 142zM392 589q-51 0 -93.5 -18t-73 -50t-47.5 -75.5t-17 -95.5q0 -51 17 -94.5t47.5 -76
t73 -50.5t93.5 -18t93.5 18t72.5 50.5t47 76t17 94.5q0 52 -17 95.5t-47 75.5t-72.5 50t-93.5 18zM305 900h178l113 -110h-145l-57 60l-57 -60h-145z" />
    <glyph glyph-name="Otilde" unicode="&#xd5;" horiz-adv-x="783" 
d="M24 350q0 76 29 143t79 116.5t117 78t143 28.5t142.5 -28.5t116.5 -78t79 -116.5t29 -143q0 -75 -29 -142t-79 -116.5t-116.5 -78.5t-142.5 -29t-143 29t-117 78.5t-79 116.5t-29 142zM392 589q-51 0 -93.5 -18t-73 -50t-47.5 -75.5t-17 -95.5q0 -51 17 -94.5t47.5 -76
t73 -50.5t93.5 -18t93.5 18t72.5 50.5t47 76t17 94.5q0 52 -17 95.5t-47 75.5t-72.5 50t-93.5 18zM203 758q0 20 6 45t20 47.5t38.5 38t60.5 15.5q28 0 45.5 -8.5t30 -18t23.5 -18t27 -8.5q7 0 11.5 5t7.5 12.5t4.5 16t1.5 15.5h99q0 -17 -5.5 -41.5t-19 -47.5t-37 -39.5
t-60.5 -16.5q-23 0 -40.5 8.5t-32 18t-27.5 18t-26 8.5q-15 0 -21.5 -17t-6.5 -33h-99z" />
    <glyph glyph-name="Odieresis" unicode="&#xd6;" horiz-adv-x="783" 
d="M24 350q0 76 29 143t79 116.5t117 78t143 28.5t142.5 -28.5t116.5 -78t79 -116.5t29 -143q0 -75 -29 -142t-79 -116.5t-116.5 -78.5t-142.5 -29t-143 29t-117 78.5t-79 116.5t-29 142zM392 589q-51 0 -93.5 -18t-73 -50t-47.5 -75.5t-17 -95.5q0 -51 17 -94.5t47.5 -76
t73 -50.5t93.5 -18t93.5 18t72.5 50.5t47 76t17 94.5q0 52 -17 95.5t-47 75.5t-72.5 50t-93.5 18zM224 900h130v-119h-130v119zM434 900h130v-119h-130v119z" />
    <glyph glyph-name="Oslash" unicode="&#xd8;" horiz-adv-x="783" 
d="M25 0l90 109q-43 48 -67 110t-24 131q0 76 29 143t79 116.5t117 78t143 28.5q51 0 97.5 -13t87.5 -37l29 34h152l-90 -109q42 -48 66.5 -110t24.5 -131q0 -75 -29 -142t-79 -116.5t-116.5 -78.5t-142.5 -29q-51 0 -97.5 13t-88.5 37l-28 -34h-153zM285 130
q50 -25 107 -25q51 0 94 19t74.5 52.5t49.5 78t18 95.5q0 40 -11 76t-31 66zM498 570q-48 25 -106 25q-51 0 -94.5 -19t-75 -52t-49.5 -77.5t-18 -96.5q0 -81 42 -143z" />
    <glyph glyph-name="Ugrave" unicode="&#xd9;" horiz-adv-x="672" 
d="M60 700h132v-426q0 -81 36 -124t108 -43t107 43t35 124v426h134v-438q0 -65 -19.5 -116.5t-55.5 -87.5t-87 -55t-114 -19t-114 19t-87 55t-55.5 87.5t-19.5 116.5v438zM291 900l121 -110h-149l-118 110h146z" />
    <glyph glyph-name="Uacute" unicode="&#xda;" horiz-adv-x="672" 
d="M60 700h132v-426q0 -81 36 -124t108 -43t107 43t35 124v426h134v-438q0 -65 -19.5 -116.5t-55.5 -87.5t-87 -55t-114 -19t-114 19t-87 55t-55.5 87.5t-19.5 116.5v438zM523 900l-118 -110h-149l121 110h146z" />
    <glyph glyph-name="Ucircumflex" unicode="&#xdb;" horiz-adv-x="672" 
d="M60 700h132v-426q0 -81 36 -124t108 -43t107 43t35 124v426h134v-438q0 -65 -19.5 -116.5t-55.5 -87.5t-87 -55t-114 -19t-114 19t-87 55t-55.5 87.5t-19.5 116.5v438zM246 900h178l113 -110h-145l-57 60l-57 -60h-145z" />
    <glyph glyph-name="Udieresis" unicode="&#xdc;" horiz-adv-x="672" 
d="M60 700h132v-426q0 -81 36 -124t108 -43t107 43t35 124v426h134v-438q0 -65 -19.5 -116.5t-55.5 -87.5t-87 -55t-114 -19t-114 19t-87 55t-55.5 87.5t-19.5 116.5v438zM159 900h130v-119h-130v119zM369 900h130v-119h-130v119z" />
    <glyph glyph-name="germandbls" unicode="&#xdf;" horiz-adv-x="543" 
d="M74 386h-64v114h64q2 109 61.5 162t159.5 53q43 0 81 -16t66.5 -44t45 -65.5t16.5 -80.5q0 -45 -22 -83t-53 -59q17 -10 33 -25t28.5 -35t20 -45t7.5 -54q0 -45 -16 -83.5t-44.5 -66t-67.5 -43t-85 -15.5h-30v114h24q42 2 70.5 27t28.5 67q0 46 -32 70.5t-81 24.5h-10
v114h10q45 0 72 25.5t27 66.5q0 39 -25.5 65.5t-63.5 26.5q-44 0 -72.5 -28.5t-28.5 -82.5v-490h-120v386z" />
    <glyph glyph-name="agrave" unicode="&#xe0;" horiz-adv-x="588" 
d="M418 38q-29 -21 -64 -34.5t-73 -13.5q-54 0 -102 20.5t-83 55.5t-55.5 82.5t-20.5 101.5t20.5 101.5t55.5 82.5t83 55.5t102 20.5q37 0 72.5 -13.5t64.5 -34.5v38h120v-500h-120v38zM418 330q-2 3 -11 13.5t-25 21.5t-39.5 20t-56.5 9q-31 0 -57 -11.5t-45.5 -31
t-30.5 -45.5t-11 -56t11 -56t30.5 -45.5t45.5 -31t57 -11.5q35 0 60 10t41 23q18 14 31 33v158zM244 700l121 -110h-149l-118 110h146z" />
    <glyph glyph-name="aacute" unicode="&#xe1;" horiz-adv-x="588" 
d="M418 38q-29 -21 -64 -34.5t-73 -13.5q-54 0 -102 20.5t-83 55.5t-55.5 82.5t-20.5 101.5t20.5 101.5t55.5 82.5t83 55.5t102 20.5q37 0 72.5 -13.5t64.5 -34.5v38h120v-500h-120v38zM418 330q-2 3 -11 13.5t-25 21.5t-39.5 20t-56.5 9q-31 0 -57 -11.5t-45.5 -31
t-30.5 -45.5t-11 -56t11 -56t30.5 -45.5t45.5 -31t57 -11.5q35 0 60 10t41 23q18 14 31 33v158zM465 700l-118 -110h-149l121 110h146z" />
    <glyph glyph-name="acircumflex" unicode="&#xe2;" horiz-adv-x="588" 
d="M418 38q-29 -21 -64 -34.5t-73 -13.5q-54 0 -102 20.5t-83 55.5t-55.5 82.5t-20.5 101.5t20.5 101.5t55.5 82.5t83 55.5t102 20.5q37 0 72.5 -13.5t64.5 -34.5v38h120v-500h-120v38zM418 330q-2 3 -11 13.5t-25 21.5t-39.5 20t-56.5 9q-31 0 -57 -11.5t-45.5 -31
t-30.5 -45.5t-11 -56t11 -56t30.5 -45.5t45.5 -31t57 -11.5q35 0 60 10t41 23q18 14 31 33v158zM203 700h178l113 -110h-145l-57 60l-57 -60h-145z" />
    <glyph glyph-name="atilde" unicode="&#xe3;" horiz-adv-x="588" 
d="M418 38q-29 -21 -64 -34.5t-73 -13.5q-54 0 -102 20.5t-83 55.5t-55.5 82.5t-20.5 101.5t20.5 101.5t55.5 82.5t83 55.5t102 20.5q37 0 72.5 -13.5t64.5 -34.5v38h120v-500h-120v38zM418 330q-2 3 -11 13.5t-25 21.5t-39.5 20t-56.5 9q-31 0 -57 -11.5t-45.5 -31
t-30.5 -45.5t-11 -56t11 -56t30.5 -45.5t45.5 -31t57 -11.5q35 0 60 10t41 23q18 14 31 33v158zM102 558q0 20 6 45t20 47.5t38.5 38t60.5 15.5q28 0 45.5 -8.5t30 -18t23.5 -18t27 -8.5q7 0 11.5 5t7.5 12.5t4.5 16t1.5 15.5h99q0 -17 -5.5 -41.5t-19 -47.5t-37 -39.5
t-60.5 -16.5q-23 0 -40.5 8.5t-32 18t-27.5 18t-26 8.5q-15 0 -21.5 -17t-6.5 -33h-99z" />
    <glyph glyph-name="adieresis" unicode="&#xe4;" horiz-adv-x="588" 
d="M418 38q-29 -21 -64 -34.5t-73 -13.5q-54 0 -102 20.5t-83 55.5t-55.5 82.5t-20.5 101.5t20.5 101.5t55.5 82.5t83 55.5t102 20.5q37 0 72.5 -13.5t64.5 -34.5v38h120v-500h-120v38zM418 330q-2 3 -11 13.5t-25 21.5t-39.5 20t-56.5 9q-31 0 -57 -11.5t-45.5 -31
t-30.5 -45.5t-11 -56t11 -56t30.5 -45.5t45.5 -31t57 -11.5q35 0 60 10t41 23q18 14 31 33v158zM122 700h130v-119h-130v119zM332 700h130v-119h-130v119z" />
    <glyph glyph-name="aring" unicode="&#xe5;" horiz-adv-x="588" 
d="M418 38q-29 -21 -64 -34.5t-73 -13.5q-54 0 -102 20.5t-83 55.5t-55.5 82.5t-20.5 101.5t20.5 101.5t55.5 82.5t83 55.5t102 20.5q37 0 72.5 -13.5t64.5 -34.5v38h120v-500h-120v38zM418 330q-2 3 -11 13.5t-25 21.5t-39.5 20t-56.5 9q-31 0 -57 -11.5t-45.5 -31
t-30.5 -45.5t-11 -56t11 -56t30.5 -45.5t45.5 -31t57 -11.5q35 0 60 10t41 23q18 14 31 33v158zM296 628q15 0 25 10.5t10 25.5t-10 25.5t-25 10.5t-25 -10.5t-10 -25.5t10 -25.5t25 -10.5zM194 664q0 44 29 73t73 29t73 -29t29 -73t-29 -73t-73 -29t-73 29t-29 73z" />
    <glyph glyph-name="ae" unicode="&#xe6;" horiz-adv-x="943" 
d="M421 39q-29 -22 -65.5 -35.5t-74.5 -13.5q-54 0 -102 20.5t-83 55.5t-55.5 82.5t-20.5 101.5t20.5 101.5t55.5 82.5t83 55.5t102 20.5t107 -23.5t89 -64.5q35 41 88 64.5t107 23.5q48 0 90 -16t74.5 -44.5t54 -67.5t28.5 -84q4 -23 5 -47.5t1 -50.5h-390v-33
q5 -11 18 -23t31 -21.5t39 -16t44 -6.5q32 0 53.5 7.5t35.5 17.5q16 11 26 25h133q-9 -31 -30.5 -59.5t-53 -51t-72 -36t-86.5 -13.5q-42 0 -77 13t-61 35v-38h-114v39zM421 330q-2 3 -10.5 14t-25 23t-41 21t-58.5 9q-31 0 -57.5 -12t-46.5 -32t-31.5 -46.5t-11.5 -56.5
t11.5 -56.5t31.5 -47t46.5 -32.5t57.5 -12q37 0 63 10t42 22q18 14 30 33v163zM795 293q-2 20 -11.5 39t-26 33.5t-39 23.5t-49.5 9q-29 0 -52 -7.5t-40 -18t-27.5 -22t-14.5 -20.5v-37h260z" />
    <glyph glyph-name="ccedilla" unicode="&#xe7;" horiz-adv-x="532" 
d="M522 170q-11 -40 -34.5 -73t-55 -57t-70.5 -37t-81 -13q-54 0 -102 20.5t-83 55.5t-55.5 82.5t-20.5 101.5t20.5 101.5t55.5 82.5t83 55.5t102 20.5q42 0 80.5 -13t70 -37t54.5 -57t34 -73h-134q-13 30 -42.5 46.5t-62.5 16.5q-30 0 -55 -11t-43.5 -30.5t-29 -45.5
t-10.5 -56t10.5 -55.5t29 -44.5t43.5 -30t55 -11q33 0 63 15.5t44 45.5h134zM237 -157h20q17 0 17 16q0 5 -2.5 10t-10.5 5h-84l51 74h43q47 0 73 -26.5t26 -62.5t-23.5 -62.5t-77.5 -26.5h-32v73z" />
    <glyph glyph-name="egrave" unicode="&#xe8;" horiz-adv-x="576" 
d="M529 150q-17 -40 -44 -70t-60 -50t-70.5 -30t-74.5 -10q-54 0 -101 20.5t-81.5 55.5t-54 82.5t-19.5 101.5t19.5 101.5t54 82.5t81.5 55.5t101 20.5t98 -16.5t76 -46t52.5 -69t27.5 -84.5q4 -23 5 -45.5t1 -48.5h-390q3 -20 15.5 -38.5t30.5 -32t40 -21.5t44 -8
q32 0 53.5 7.5t35.5 17.5q16 11 26 25h134zM408 293q-3 21 -12.5 40t-26 33.5t-39 23t-50.5 8.5q-26 0 -48.5 -9t-40 -23.5t-29 -33t-14.5 -39.5h260zM243 700l121 -110h-149l-118 110h146z" />
    <glyph glyph-name="eacute" unicode="&#xe9;" horiz-adv-x="576" 
d="M529 150q-17 -40 -44 -70t-60 -50t-70.5 -30t-74.5 -10q-54 0 -101 20.5t-81.5 55.5t-54 82.5t-19.5 101.5t19.5 101.5t54 82.5t81.5 55.5t101 20.5t98 -16.5t76 -46t52.5 -69t27.5 -84.5q4 -23 5 -45.5t1 -48.5h-390q3 -20 15.5 -38.5t30.5 -32t40 -21.5t44 -8
q32 0 53.5 7.5t35.5 17.5q16 11 26 25h134zM408 293q-3 21 -12.5 40t-26 33.5t-39 23t-50.5 8.5q-26 0 -48.5 -9t-40 -23.5t-29 -33t-14.5 -39.5h260zM474 700l-118 -110h-149l121 110h146z" />
    <glyph glyph-name="ecircumflex" unicode="&#xea;" horiz-adv-x="576" 
d="M529 150q-17 -40 -44 -70t-60 -50t-70.5 -30t-74.5 -10q-54 0 -101 20.5t-81.5 55.5t-54 82.5t-19.5 101.5t19.5 101.5t54 82.5t81.5 55.5t101 20.5t98 -16.5t76 -46t52.5 -69t27.5 -84.5q4 -23 5 -45.5t1 -48.5h-390q3 -20 15.5 -38.5t30.5 -32t40 -21.5t44 -8
q32 0 53.5 7.5t35.5 17.5q16 11 26 25h134zM408 293q-3 21 -12.5 40t-26 33.5t-39 23t-50.5 8.5q-26 0 -48.5 -9t-40 -23.5t-29 -33t-14.5 -39.5h260zM192 700h178l113 -110h-145l-57 60l-57 -60h-145z" />
    <glyph glyph-name="edieresis" unicode="&#xeb;" horiz-adv-x="576" 
d="M529 150q-17 -40 -44 -70t-60 -50t-70.5 -30t-74.5 -10q-54 0 -101 20.5t-81.5 55.5t-54 82.5t-19.5 101.5t19.5 101.5t54 82.5t81.5 55.5t101 20.5t98 -16.5t76 -46t52.5 -69t27.5 -84.5q4 -23 5 -45.5t1 -48.5h-390q3 -20 15.5 -38.5t30.5 -32t40 -21.5t44 -8
q32 0 53.5 7.5t35.5 17.5q16 11 26 25h134zM408 293q-3 21 -12.5 40t-26 33.5t-39 23t-50.5 8.5q-26 0 -48.5 -9t-40 -23.5t-29 -33t-14.5 -39.5h260zM111 700h130v-119h-130v119zM321 700h130v-119h-130v119z" />
    <glyph glyph-name="igrave" unicode="&#xec;" horiz-adv-x="220" 
d="M50 500h120v-500h-120v500zM114 700l121 -110h-149l-118 110h146z" />
    <glyph glyph-name="iacute" unicode="&#xed;" horiz-adv-x="220" 
d="M50 500h120v-500h-120v500zM255 700l-118 -110h-149l121 110h146z" />
    <glyph glyph-name="icircumflex" unicode="&#xee;" horiz-adv-x="220" 
d="M50 500h120v-500h-120v500zM23 700h178l113 -110h-145l-57 60l-57 -60h-145z" />
    <glyph glyph-name="idieresis" unicode="&#xef;" horiz-adv-x="220" 
d="M50 500h120v-500h-120v500zM-57 700h130v-119h-130v119zM153 700h130v-119h-130v119z" />
    <glyph glyph-name="ntilde" unicode="&#xf1;" horiz-adv-x="568" 
d="M50 500h120v-38q29 21 65 34.5t74 13.5q107 0 163 -62.5t56 -177.5v-270h-122v270q0 57 -25.5 91t-78.5 34q-28 0 -50 -7t-38.5 -17.5t-27.5 -21.5t-16 -20v-329h-120v500zM87 558q0 20 6 45t20 47.5t38.5 38t60.5 15.5q28 0 45.5 -8.5t30 -18t23.5 -18t27 -8.5
q7 0 11.5 5t7.5 12.5t4.5 16t1.5 15.5h99q0 -17 -5.5 -41.5t-19 -47.5t-37 -39.5t-60.5 -16.5q-23 0 -40.5 8.5t-32 18t-27.5 18t-26 8.5q-15 0 -21.5 -17t-6.5 -33h-99z" />
    <glyph glyph-name="ograve" unicode="&#xf2;" horiz-adv-x="560" 
d="M20 250q0 54 20.5 101.5t55.5 82.5t82.5 55.5t101.5 20.5t101.5 -20.5t82.5 -55.5t55.5 -82.5t20.5 -101.5t-20.5 -101.5t-55.5 -82.5t-82.5 -55.5t-101.5 -20.5t-101.5 20.5t-82.5 55.5t-55.5 82.5t-20.5 101.5zM280 107q31 0 56 11t43 30t27.5 45t9.5 57t-9.5 57
t-27.5 45t-43 30t-56 11t-56 -11t-43 -30t-28 -45t-10 -57t10 -57t28 -45t43 -30t56 -11zM252 700l121 -110h-149l-118 110h146z" />
    <glyph glyph-name="oacute" unicode="&#xf3;" horiz-adv-x="560" 
d="M20 250q0 54 20.5 101.5t55.5 82.5t82.5 55.5t101.5 20.5t101.5 -20.5t82.5 -55.5t55.5 -82.5t20.5 -101.5t-20.5 -101.5t-55.5 -82.5t-82.5 -55.5t-101.5 -20.5t-101.5 20.5t-82.5 55.5t-55.5 82.5t-20.5 101.5zM280 107q31 0 56 11t43 30t27.5 45t9.5 57t-9.5 57
t-27.5 45t-43 30t-56 11t-56 -11t-43 -30t-28 -45t-10 -57t10 -57t28 -45t43 -30t56 -11zM453 700l-118 -110h-149l121 110h146z" />
    <glyph glyph-name="ocircumflex" unicode="&#xf4;" horiz-adv-x="560" 
d="M20 250q0 54 20.5 101.5t55.5 82.5t82.5 55.5t101.5 20.5t101.5 -20.5t82.5 -55.5t55.5 -82.5t20.5 -101.5t-20.5 -101.5t-55.5 -82.5t-82.5 -55.5t-101.5 -20.5t-101.5 20.5t-82.5 55.5t-55.5 82.5t-20.5 101.5zM280 107q31 0 56 11t43 30t27.5 45t9.5 57t-9.5 57
t-27.5 45t-43 30t-56 11t-56 -11t-43 -30t-28 -45t-10 -57t10 -57t28 -45t43 -30t56 -11zM191 700h178l113 -110h-145l-57 60l-57 -60h-145z" />
    <glyph glyph-name="otilde" unicode="&#xf5;" horiz-adv-x="560" 
d="M20 250q0 54 20.5 101.5t55.5 82.5t82.5 55.5t101.5 20.5t101.5 -20.5t82.5 -55.5t55.5 -82.5t20.5 -101.5t-20.5 -101.5t-55.5 -82.5t-82.5 -55.5t-101.5 -20.5t-101.5 20.5t-82.5 55.5t-55.5 82.5t-20.5 101.5zM280 107q31 0 56 11t43 30t27.5 45t9.5 57t-9.5 57
t-27.5 45t-43 30t-56 11t-56 -11t-43 -30t-28 -45t-10 -57t10 -57t28 -45t43 -30t56 -11zM89 558q0 20 6 45t20 47.5t38.5 38t60.5 15.5q28 0 45.5 -8.5t30 -18t23.5 -18t27 -8.5q7 0 11.5 5t7.5 12.5t4.5 16t1.5 15.5h99q0 -17 -5.5 -41.5t-19 -47.5t-37 -39.5t-60.5 -16.5
q-23 0 -40.5 8.5t-32 18t-27.5 18t-26 8.5q-15 0 -21.5 -17t-6.5 -33h-99z" />
    <glyph glyph-name="odieresis" unicode="&#xf6;" horiz-adv-x="560" 
d="M20 250q0 54 20.5 101.5t55.5 82.5t82.5 55.5t101.5 20.5t101.5 -20.5t82.5 -55.5t55.5 -82.5t20.5 -101.5t-20.5 -101.5t-55.5 -82.5t-82.5 -55.5t-101.5 -20.5t-101.5 20.5t-82.5 55.5t-55.5 82.5t-20.5 101.5zM280 107q31 0 56 11t43 30t27.5 45t9.5 57t-9.5 57
t-27.5 45t-43 30t-56 11t-56 -11t-43 -30t-28 -45t-10 -57t10 -57t28 -45t43 -30t56 -11zM110 700h130v-119h-130v119zM320 700h130v-119h-130v119z" />
    <glyph glyph-name="divide" unicode="&#xf7;" 
d="M60 321h450v-114h-450v114zM220 130h130v-130h-130v130zM220 528h130v-130h-130v130z" />
    <glyph glyph-name="oslash" unicode="&#xf8;" horiz-adv-x="560" 
d="M79 85q-28 34 -43.5 75.5t-15.5 89.5q0 54 20.5 101.5t55.5 82.5t82.5 55.5t101.5 20.5q35 0 66.5 -8.5t60.5 -24.5l19 23h126l-71 -85q28 -34 43.5 -75.5t15.5 -89.5q0 -54 -20.5 -101.5t-55.5 -82.5t-82.5 -55.5t-101.5 -20.5q-69 0 -127 32l-18 -22h-127zM332 388
q-12 5 -25 7.5t-27 2.5q-31 0 -57 -11.5t-45 -31.5t-29.5 -47t-10.5 -58q0 -40 17 -74zM228 111q24 -9 52 -9q31 0 56.5 11.5t44.5 31.5t29.5 47t10.5 58q0 40 -17 72z" />
    <glyph glyph-name="ugrave" unicode="&#xf9;" horiz-adv-x="568" 
d="M398 0v36q-26 -20 -59.5 -33t-69.5 -13q-116 0 -167.5 62.5t-51.5 177.5v270h122v-270q0 -29 4.5 -52t16.5 -39t32 -25t51 -9t53.5 9t37 20t31.5 36v330h120v-500h-120zM300 700l121 -110h-149l-118 110h146z" />
    <glyph glyph-name="uacute" unicode="&#xfa;" horiz-adv-x="568" 
d="M398 0v36q-26 -20 -59.5 -33t-69.5 -13q-116 0 -167.5 62.5t-51.5 177.5v270h122v-270q0 -29 4.5 -52t16.5 -39t32 -25t51 -9t53.5 9t37 20t31.5 36v330h120v-500h-120zM421 700l-118 -110h-149l121 110h146z" />
    <glyph glyph-name="ucircumflex" unicode="&#xfb;" horiz-adv-x="568" 
d="M398 0v36q-26 -20 -59.5 -33t-69.5 -13q-116 0 -167.5 62.5t-51.5 177.5v270h122v-270q0 -29 4.5 -52t16.5 -39t32 -25t51 -9t53.5 9t37 20t31.5 36v330h120v-500h-120zM199 700h178l113 -110h-145l-57 60l-57 -60h-145z" />
    <glyph glyph-name="udieresis" unicode="&#xfc;" horiz-adv-x="568" 
d="M398 0v36q-26 -20 -59.5 -33t-69.5 -13q-116 0 -167.5 62.5t-51.5 177.5v270h122v-270q0 -29 4.5 -52t16.5 -39t32 -25t51 -9t53.5 9t37 20t31.5 36v330h120v-500h-120zM118 700h130v-119h-130v119zM328 700h130v-119h-130v119z" />
    <glyph glyph-name="ydieresis" unicode="&#xff;" horiz-adv-x="521" 
d="M40 -64h22q24 0 42 8.5t34 40.5l61 122l-204 393h135l131 -268l133 268h132l-248 -500l-37 -71q-20 -40 -41 -62t-43 -32t-44.5 -12t-46.5 -2h-26v115zM94 700h130v-119h-130v119zM304 700h130v-119h-130v119z" />
    <glyph glyph-name="dotlessi" unicode="&#x131;" horiz-adv-x="220" 
d="M50 500h120v-500h-120v500z" />
    <glyph glyph-name="OE" unicode="&#x152;" horiz-adv-x="1066" 
d="M605 0v67q-42 -36 -93 -59.5t-120 -23.5q-76 0 -143 29t-117 78.5t-79 116.5t-29 142q0 76 29 143t79 116.5t117 78t143 28.5q69 0 120 -23t93 -58v65h416v-120h-286v-155h258v-120h-258v-185h286v-120h-416zM605 486q-32 52 -89 79.5t-124 27.5q-51 0 -94 -18.5
t-74.5 -51t-49 -77t-17.5 -96.5q0 -51 17.5 -95.5t49 -77t74.5 -51.5t94 -19q67 0 124 27t89 79v273z" />
    <glyph glyph-name="oe" unicode="&#x153;" horiz-adv-x="941" 
d="M900 150q-17 -40 -42.5 -70t-58 -50t-69 -30t-73.5 -10q-60 0 -107 24.5t-78 66.5q-34 -42 -83 -66.5t-109 -24.5q-54 0 -101.5 20.5t-82.5 55.5t-55.5 82.5t-20.5 101.5t20.5 101.5t55.5 82.5t82.5 55.5t101.5 20.5q60 0 109.5 -25t83.5 -67q32 42 78.5 67t104.5 25
q54 0 97 -16t74.5 -44.5t51 -67.5t25 -73t6.5 -58.5t1 -50.5h-376q3 -20 14 -38t27.5 -31.5t37.5 -21.5t43 -8q32 0 52 7.5t33 16.5q14 11 23 25h135zM420 250q-1 36 -12 61.5t-29.5 44t-43.5 29.5t-55 11q-31 0 -56.5 -11.5t-44 -31t-29 -46t-10.5 -57.5t10.5 -57.5t29 -46
t44 -31t56.5 -11.5q30 0 55 11t43.5 29.5t29.5 44t12 61.5zM779 293q-2 19 -9.5 38t-22 34t-37 23.5t-53.5 8.5q-24 0 -45.5 -9t-38 -23.5t-27 -33.5t-13.5 -38h246z" />
    <glyph glyph-name="Ydieresis" unicode="&#x178;" horiz-adv-x="642" 
d="M257 303l-257 397h153l169 -270l169 270h151l-255 -398v-302h-130v303zM154 900h130v-119h-130v119zM364 900h130v-119h-130v119z" />
    <glyph glyph-name="florin" unicode="&#x192;" horiz-adv-x="476" 
d="M2 -86h41q23 0 38.5 15.5t23.5 52.5l85 404h-87l25 114h86l7 33q20 90 70 128.5t124 38.5h51l-23 -114h-41q-23 0 -38 -15.5t-23 -52.5l-4 -18h89l-25 -114h-88l-88 -420q-19 -87 -70.5 -126.5t-123.5 -39.5h-51z" />
    <glyph glyph-name="circumflex" unicode="&#x2c6;" horiz-adv-x="515" 
d="M170 700h178l113 -110h-145l-57 60l-57 -60h-145z" />
    <glyph glyph-name="caron" unicode="&#x2c7;" horiz-adv-x="516" 
d="M348 590h-178l-113 110h145l57 -60l57 60h145z" />
    <glyph glyph-name="breve" unicode="&#x2d8;" horiz-adv-x="502" 
d="M178 700q8 -27 28.5 -44.5t43.5 -17.5q26 0 47 17.5t33 44.5h110q-10 -35 -29 -62.5t-44 -46.5t-55 -29t-62 -10t-61.5 10t-54.5 29t-44 46.5t-29 62.5h117z" />
    <glyph glyph-name="dotaccent" unicode="&#x2d9;" horiz-adv-x="335" 
d="M112 700h130v-119h-130v119z" />
    <glyph glyph-name="ring" unicode="&#x2da;" horiz-adv-x="334" 
d="M168 588q15 0 25 10.5t10 25.5t-10 25.5t-25 10.5t-25 -10.5t-10 -25.5t10 -25.5t25 -10.5zM66 624q0 44 29 73t73 29t73 -29t29 -73t-29 -73t-73 -29t-73 29t-29 73z" />
    <glyph glyph-name="ogonek" unicode="&#x2db;" horiz-adv-x="328" 
d="M160 -200q-48 0 -72 21t-24 55q0 25 12 44t27 32l60 48h75l-63 -85q-6 -8 -9.5 -13.5t-3.5 -11.5q0 -5 3.5 -10t13.5 -5h24v-75h-43z" />
    <glyph glyph-name="tilde" unicode="&#x2dc;" horiz-adv-x="503" 
d="M61 558q0 20 6 45t20 47.5t38.5 38t60.5 15.5q28 0 45.5 -8.5t30 -18t23.5 -18t27 -8.5q7 0 11.5 5t7.5 12.5t4.5 16t1.5 15.5h99q0 -17 -5.5 -41.5t-19 -47.5t-37 -39.5t-60.5 -16.5q-23 0 -40.5 8.5t-32 18t-27.5 18t-26 8.5q-15 0 -21.5 -17t-6.5 -33h-99z" />
    <glyph glyph-name="hungarumlaut" unicode="&#x2dd;" horiz-adv-x="516" 
d="M138 700h149l-121 -110h-146zM353 700h149l-121 -110h-146z" />
    <glyph glyph-name="pi" unicode="&#x3c0;" horiz-adv-x="621" 
d="M101 0v386h-91v114h581v-114h-100v-210q0 -62 59 -62h41v-114h-57q-76 0 -119.5 39t-43.5 133v214h-150v-386h-120z" />
    <glyph glyph-name="endash" unicode="&#x2013;" horiz-adv-x="420" 
d="M0 321h420v-114h-420v114z" />
    <glyph glyph-name="emdash" unicode="&#x2014;" horiz-adv-x="820" 
d="M0 321h820v-114h-820v114z" />
    <glyph glyph-name="quoteleft" unicode="&#x2018;" horiz-adv-x="220" 
d="M175 655q-31 -7 -44.5 -29.5t-13.5 -57.5h58v-130h-130v121q0 37 11 62.5t29 42t41.5 25t48.5 11.5v-45z" />
    <glyph glyph-name="quoteright" unicode="&#x2019;" horiz-adv-x="220" 
d="M45 483q31 7 44.5 29.5t13.5 57.5h-58v130h130v-121q0 -37 -11 -62.5t-29 -42t-41.5 -25t-48.5 -11.5v45z" />
    <glyph glyph-name="quotesinglbase" unicode="&#x201a;" horiz-adv-x="220" 
d="M45 -87q31 7 44.5 29.5t13.5 57.5h-58v130h130v-121q0 -37 -11 -62.5t-29 -42t-41.5 -25t-48.5 -11.5v45z" />
    <glyph glyph-name="quotedblleft" unicode="&#x201c;" horiz-adv-x="420" 
d="M375 655q-31 -7 -44.5 -29.5t-13.5 -57.5h58v-130h-130v121q0 37 11 62.5t29 42t41.5 25t48.5 11.5v-45zM175 655q-31 -7 -44.5 -29.5t-13.5 -57.5h58v-130h-130v121q0 37 11 62.5t29 42t41.5 25t48.5 11.5v-45z" />
    <glyph glyph-name="quotedblright" unicode="&#x201d;" horiz-adv-x="420" 
d="M245 483q31 7 44.5 29.5t13.5 57.5h-58v130h130v-121q0 -37 -11 -62.5t-29 -42t-41.5 -25t-48.5 -11.5v45zM45 483q31 7 44.5 29.5t13.5 57.5h-58v130h130v-121q0 -37 -11 -62.5t-29 -42t-41.5 -25t-48.5 -11.5v45z" />
    <glyph glyph-name="quotedblbase" unicode="&#x201e;" horiz-adv-x="420" 
d="M245 -87q31 7 44.5 29.5t13.5 57.5h-58v130h130v-121q0 -37 -11 -62.5t-29 -42t-41.5 -25t-48.5 -11.5v45zM45 -87q31 7 44.5 29.5t13.5 57.5h-58v130h130v-121q0 -37 -11 -62.5t-29 -42t-41.5 -25t-48.5 -11.5v45z" />
    <glyph glyph-name="dagger" unicode="&#x2020;" horiz-adv-x="510" 
d="M196 386h-166v114h166v300h120v-300h164v-114h-164v-486h-120v486z" />
    <glyph glyph-name="daggerdbl" unicode="&#x2021;" horiz-adv-x="510" 
d="M196 102h-166v114h166v284h-166v114h166v186h120v-186h164v-114h-164v-284h164v-114h-164v-202h-120v202z" />
    <glyph glyph-name="bullet" unicode="&#x2022;" horiz-adv-x="370" 
d="M66 313q0 24 9 46t25 38t38 25.5t47 9.5q24 0 46 -9.5t38 -25.5t25.5 -38t9.5 -46q0 -25 -9.5 -47t-25.5 -38t-38 -25t-46 -9q-25 0 -47 9t-38 25t-25 38t-9 47z" />
    <glyph glyph-name="ellipsis" unicode="&#x2026;" horiz-adv-x="660" 
d="M485 130h130v-130h-130v130zM265 130h130v-130h-130v130zM45 130h130v-130h-130v130z" />
    <glyph glyph-name="perthousand" unicode="&#x2030;" horiz-adv-x="1027" 
d="M25 560q0 31 12 58.5t32 47.5t47.5 32t58.5 12t58.5 -12t47.5 -32t32 -47.5t12 -58.5t-12 -58.5t-32 -47.5t-47.5 -32t-58.5 -12t-58.5 12t-47.5 32t-32 47.5t-12 58.5zM119 560q0 -24 16 -41t40 -17t40 17t16 41t-16 41t-40 17t-40 -17t-16 -41zM115 0l354 700h112
l-355 -700h-111zM382 140q0 31 12 58.5t32 47.5t47.5 32t58.5 12t58.5 -12t47.5 -32t32 -47.5t12 -58.5t-12 -58.5t-32 -47.5t-47.5 -32t-58.5 -12t-58.5 12t-47.5 32t-32 47.5t-12 58.5zM476 140q0 -24 16 -41t40 -17t40 17t16 41t-16 41t-40 17t-40 -17t-16 -41zM702 140
q0 31 12 58.5t32 47.5t47.5 32t58.5 12t58.5 -12t47.5 -32t32 -47.5t12 -58.5t-12 -58.5t-32 -47.5t-47.5 -32t-58.5 -12t-58.5 12t-47.5 32t-32 47.5t-12 58.5zM796 140q0 -24 16 -41t40 -17t40 17t16 41t-16 41t-40 17t-40 -17t-16 -41z" />
    <glyph glyph-name="guilsinglleft" unicode="&#x2039;" horiz-adv-x="338" 
d="M0 250l194 200h144l-185 -201l185 -199h-144z" />
    <glyph glyph-name="guilsinglright" unicode="&#x203a;" horiz-adv-x="338" 
d="M0 50l185 199l-185 201h144l194 -200l-194 -200h-144z" />
    <glyph glyph-name="fraction" unicode="&#x2044;" horiz-adv-x="220" 
d="M220 700h112l-355 -700h-111z" />
    <glyph glyph-name="Euro" unicode="&#x20ac;" 
d="M10 220v100h42v50h-42v100h42q3 63 22.5 109t52 76t76 45t94.5 15q47 0 88.5 -13t73 -39.5t52.5 -67t28 -95.5h-133q-9 48 -35 71.5t-74 23.5q-57 0 -83 -32.5t-31 -92.5h163l-31 -100h-135v-50h119l-31 -100h-85q6 -57 33 -86t81 -29q51 0 77 26t34 79h132
q-6 -59 -26.5 -101.5t-53 -70t-74 -40.5t-89.5 -13q-50 0 -93 14t-75 43t-52 73.5t-24 104.5h-43z" />
    <glyph glyph-name="trademark" unicode="&#x2122;" horiz-adv-x="752" 
d="M350 713l176 -195l176 195v-383h-90v163l-86 -96l-86 95v-162h-90v383zM125 612h-90v88h269v-88h-89v-282h-90v282z" />
    <glyph glyph-name="Omega" unicode="&#x3a9;" horiz-adv-x="756" 
d="M50 0v120h137v13q-68 45 -107.5 107t-39.5 144q0 69 24.5 129t69 105t106.5 71t137 26t137.5 -25.5t107.5 -70t69.5 -105t24.5 -130.5q0 -81 -39.5 -143.5t-107.5 -107.5v-13h137v-120h-265v179q66 35 105.5 85.5t39.5 119.5q0 45 -14.5 84t-42 67t-66 44t-86.5 16
t-86 -16.5t-65 -45t-41.5 -67t-14.5 -82.5q0 -69 39.5 -119t105.5 -85v-180h-265z" />
    <glyph glyph-name="Omega" unicode="&#x2126;" horiz-adv-x="756" 
d="M50 0v120h137v13q-68 45 -107.5 107t-39.5 144q0 69 24.5 129t69 105t106.5 71t137 26t137.5 -25.5t107.5 -70t69.5 -105t24.5 -130.5q0 -81 -39.5 -143.5t-107.5 -107.5v-13h137v-120h-265v179q66 35 105.5 85.5t39.5 119.5q0 45 -14.5 84t-42 67t-66 44t-86.5 16
t-86 -16.5t-65 -45t-41.5 -67t-14.5 -82.5q0 -69 39.5 -119t105.5 -85v-180h-265z" />
    <glyph glyph-name="partialdiff" unicode="&#x2202;" horiz-adv-x="587" 
d="M253 700h18q53 0 99.5 -17.5t81.5 -48t55 -71.5t20 -88v-245q0 -50 -15.5 -93.5t-46.5 -76t-77 -51.5t-107 -19q-54 0 -102 20.5t-83 55.5t-55.5 83t-20.5 103q0 54 20 101t55 82t82.5 55t103.5 20q67 0 126 -37v2q0 24 -10 44.5t-28 35t-43 23t-55 8.5h-18v114zM407 340
q-19 23 -51.5 39.5t-74.5 16.5q-31 0 -57 -11t-44.5 -30.5t-29 -45.5t-10.5 -57t10.5 -58t29 -47t44.5 -31.5t57 -11.5q63 0 93.5 33t32.5 88v115z" />
    <glyph glyph-name="Delta" unicode="&#x394;" horiz-adv-x="708" 
d="M345 745l373 -745h-728zM525 120l-178 350l-165 -350h343z" />
    <glyph glyph-name="Delta" unicode="&#x2206;" horiz-adv-x="708" 
d="M345 745l373 -745h-728zM525 120l-178 350l-165 -350h343z" />
    <glyph glyph-name="product" unicode="&#x220f;" horiz-adv-x="675" 
d="M60 700h555v-900h-130v780h-295v-780h-130v900z" />
    <glyph glyph-name="summation" unicode="&#x2211;" horiz-adv-x="560" 
d="M265 365l-229 335h504v-120h-270l147 -215l-177 -245h300v-120h-540z" />
    <glyph glyph-name="radical" unicode="&#x221a;" horiz-adv-x="497" 
d="M147 234h-127v100h183l37 -100l164 466h93l-254 -735z" />
    <glyph glyph-name="infinity" unicode="&#x221e;" horiz-adv-x="720" 
d="M20 313q0 40 15.5 76t42 62.5t62.5 42t77 15.5q46 0 82 -19t61 -49q26 32 61 50t82 18q41 0 77 -15.5t62.5 -42t42 -62.5t15.5 -76q0 -41 -15.5 -77t-42 -62.5t-62.5 -42t-77 -15.5q-46 0 -82 17.5t-61 49.5q-26 -32 -61 -49.5t-82 -17.5q-41 0 -77 15.5t-62.5 42
t-42 62.5t-15.5 77zM127 313q0 -20 7 -37.5t19 -30.5t28.5 -20t35.5 -7q39 0 65 27t26 68q0 39 -26 66.5t-65 27.5q-19 0 -35.5 -7.5t-28.5 -20t-19 -30t-7 -36.5zM412 313q0 -41 26 -68t65 -27q19 0 35.5 7t28.5 20t19 30.5t7 37.5q0 19 -7 36.5t-19 30t-28.5 20t-35.5 7.5
q-39 0 -65 -27.5t-26 -66.5z" />
    <glyph glyph-name="integral" unicode="&#x222b;" horiz-adv-x="280" 
d="M-10 -86h45q21 0 33 13.5t12 48.5v553q0 92 44 131.5t119 39.5h47v-114h-45q-22 0 -33.5 -13.5t-11.5 -48.5v-553q0 -92 -44.5 -131.5t-118.5 -39.5h-47v114z" />
    <glyph glyph-name="approxequal" unicode="&#x2248;" 
d="M47 118q7 41 25 74q16 28 47 51t84 23q41 0 66 -15t45 -32q12 -10 26 -18.5t29 -8.5q16 0 26 7t15 16q6 11 9 24h103q-7 -41 -25 -74q-16 -28 -47 -50.5t-84 -22.5q-40 0 -64 13.5t-43 29.5q-14 12 -28 21.5t-31 9.5q-16 0 -25.5 -7.5t-15.5 -16.5q-7 -11 -10 -24h-102z
M47 309q7 41 25 74q16 28 47 51t84 23q41 0 66 -15t45 -32q12 -10 26 -18.5t29 -8.5q16 0 26 7t15 16q6 11 9 24h103q-7 -41 -25 -74q-16 -28 -47 -50.5t-84 -22.5q-40 0 -64 13.5t-43 29.5q-14 12 -28 21.5t-31 9.5q-16 0 -25.5 -7.5t-15.5 -16.5q-7 -11 -10 -24h-102z" />
    <glyph glyph-name="notequal" unicode="&#x2260;" 
d="M141 104h-81v114h136l48 92h-184v114h244l42 76h125l-41 -76h80v-114h-140l-49 -92h189v-114h-246l-55 -104h-123z" />
    <glyph glyph-name="lessequal" unicode="&#x2264;" horiz-adv-x="571" 
d="M60 114h235l-235 90v92l450 191v-124l-294 -113l294 -114v-136h-450v114z" />
    <glyph glyph-name="greaterequal" unicode="&#x2265;" 
d="M60 0v136l294 114l-294 113v124l450 -191v-92l-237 -90h237v-114h-450z" />
    <glyph glyph-name="lozenge" unicode="&#x25ca;" horiz-adv-x="549" 
d="M0 350l178 350h193l178 -350l-178 -350h-193zM427 349l-153 302l-152 -302l152 -301z" />
    <glyph glyph-name="fi" unicode="&#xfb01;" horiz-adv-x="544" 
d="M84 386h-74v114h74v18q0 46 13 80t36 56.5t54.5 34t69.5 11.5h47v-114h-37q-11 0 -22 -3.5t-20 -11t-15 -19t-6 -28.5v-24h290v-500h-120v386h-170v-386h-120v386zM374 700h120v-120h-120v120z" />
    <glyph glyph-name="fl" unicode="&#xfb02;" horiz-adv-x="544" 
d="M84 386h-74v114h74v18q0 46 13 80t36 56.5t54.5 34t69.5 11.5h237v-700h-120v586h-107q-11 0 -22 -3.5t-20 -11t-15 -19t-6 -28.5v-24h100v-114h-100v-386h-120v386z" />
    <glyph glyph-name="uniF8FF" unicode="&#xf8ff;" horiz-adv-x="648" 
d="M287 186h63v-68h-63v68zM287 227q0 33 7 56t17.5 39.5t23.5 28.5t25 23q20 14 34.5 30.5t14.5 44.5q0 36 -23.5 59.5t-61.5 23.5q-40 0 -61.5 -25.5t-21.5 -64.5h-62q0 31 11 58.5t30 47t45.5 31t58.5 11.5q31 0 58.5 -10t47 -29t31 -45t11.5 -57q0 -42 -21 -69t-44 -46
q-11 -9 -21 -18t-18 -21.5t-13 -29t-5 -38.5h-63zM74 700h500v-700h-500v700zM514 59v582h-374v-582h374z" />
    <glyph glyph-name="currency" unicode="&#xa4;" horiz-adv-x="546" 
d="M21 111l55 55q-31 53 -31 116q0 62 29 112l-53 52l85 85l52 -52q25 14 54 22.5t61 8.5t61 -8.5t55 -23.5l51 51l84 -84l-52 -52q14 -25 21.5 -53t7.5 -58q0 -32 -8.5 -61t-22.5 -54l54 -54l-84 -85l-56 54q-51 -28 -111 -28t-111 28l-56 -56zM273 154q27 0 50 10t40 27.5
t27 40.5t10 50t-10 50t-27 40.5t-40 27.5t-50 10t-50 -10t-40 -27.5t-27 -40.5t-10 -50t10 -50t27 -40.5t40 -27.5t50 -10z" />
    <glyph glyph-name="brokenbar" unicode="&#xa6;" horiz-adv-x="480" 
d="M180 800h120v-400h-120v400zM180 300h120v-400h-120v400z" />
    <glyph glyph-name="uni00AD" unicode="&#xad;" horiz-adv-x="370" 
d="M60 321h250v-114h-250v114z" />
    <glyph glyph-name="twosuperior" unicode="&#xb2;" horiz-adv-x="417" 
d="M243 524q11 14 17 26.5t6 25.5q0 19 -11.5 32.5t-31.5 13.5q-21 0 -32 -14.5t-11 -38.5h-96q0 31 11 58t29.5 46.5t44 30.5t54.5 11t54.5 -10t44 -28.5t29 -44t10.5 -56.5q0 -32 -13 -59t-37 -58l-69 -88h125v-93h-317z" />
    <glyph glyph-name="threesuperior" unicode="&#xb3;" horiz-adv-x="377" 
d="M146 416q0 -24 12 -38.5t31 -14.5t31.5 13t12.5 32q0 20 -13.5 35t-43.5 15v85q27 0 38 13t11 29q0 15 -10 26.5t-26 11.5q-20 0 -28 -14t-8 -32h-94q0 33 10 58.5t28 43t41.5 27t50.5 9.5t51 -10t41.5 -28t27.5 -41.5t10 -50.5q0 -26 -8.5 -46.5t-23.5 -36.5
q17 -19 28.5 -43t11.5 -51q0 -28 -10.5 -53t-29.5 -44t-44 -30t-54 -11t-54.5 10t-44 29t-29.5 46t-11 61h96z" />
    <glyph glyph-name="onesuperior" unicode="&#xb9;" horiz-adv-x="265" 
d="M120 609h-70v91h165v-429h-95v338z" />
    <glyph glyph-name="Eth" unicode="&#xd0;" horiz-adv-x="671" 
d="M60 700h201q85 0 156 -26.5t122 -73t79 -111t28 -139.5t-27.5 -139.5t-79 -111t-124.5 -73t-163 -26.5h-192v306h-50v93h50v301zM190 580v-181h155v-93h-155v-186h63q68 0 117 17t81 48t47.5 73t15.5 92t-15.5 92.5t-47.5 73t-81 47.5t-117 17h-63z" />
    <glyph glyph-name="multiply" unicode="&#xd7;" 
d="M72 137l128 127l-128 128l85 85l128 -128l126 126l84 -84l-126 -126l126 -126l-84 -85l-127 126l-127 -128z" />
    <glyph glyph-name="Yacute" unicode="&#xdd;" horiz-adv-x="642" 
d="M257 303l-257 397h153l169 -270l169 270h151l-255 -398v-302h-130v303zM464 900l-118 -110h-149l121 110h146z" />
    <glyph glyph-name="Thorn" unicode="&#xde;" horiz-adv-x="579" 
d="M60 700h130v-80h144q56 0 99.5 -17.5t73.5 -47.5t46 -70t16 -85q0 -44 -16 -84t-46 -70t-73.5 -48t-99.5 -18h-144v-180h-130v700zM329 300q28 0 49.5 8.5t35 22.5t20.5 32t7 37q0 40 -27.5 70t-84.5 30h-139v-200h139z" />
    <glyph glyph-name="eth" unicode="&#xf0;" horiz-adv-x="522" 
d="M146 487l-44 79l68 35l-58 99h137l25 -44l83 44l43 -77l-82 -44l127 -210q23 -38 33.5 -75.5t10.5 -73.5q0 -48 -17.5 -90.5t-49 -75t-75 -51t-96.5 -18.5q-49 0 -92 18.5t-75.5 50.5t-51.5 75t-19 92q0 48 19 91t52 75.5t78 50.5t96 16l-42 70zM250 102q25 0 46 9.5
t36.5 25.5t24.5 37.5t9 46.5q0 51 -31.5 83.5t-84.5 32.5q-24 0 -44.5 -9t-36 -25t-24.5 -37t-9 -45q0 -25 9 -46.5t24.5 -37.5t36 -25.5t44.5 -9.5z" />
    <glyph glyph-name="yacute" unicode="&#xfd;" horiz-adv-x="521" 
d="M40 -64h22q24 0 42 8.5t34 40.5l61 122l-204 393h135l131 -268l133 268h132l-248 -500l-37 -71q-20 -40 -41 -62t-43 -32t-44.5 -12t-46.5 -2h-26v115zM409 700l-118 -110h-149l121 110h146z" />
    <glyph glyph-name="thorn" unicode="&#xfe;" horiz-adv-x="588" 
d="M50 700h120v-238q29 21 64 34.5t73 13.5q54 0 102 -20.5t83 -55.5t55.5 -82.5t20.5 -101.5t-20.5 -101.5t-55.5 -82.5t-83 -55.5t-102 -20.5q-38 0 -73 13.5t-64 34.5v-238h-120v900zM170 172q13 -19 31 -33q16 -13 41 -23t60 -10q31 0 57 11.5t45.5 31t30.5 45.5t11 56
t-11 56t-30.5 45.5t-45.5 31t-57 11.5q-32 0 -55.5 -8.5t-39.5 -19.5t-25 -21.5t-12 -14.5v-158z" />
    <glyph glyph-name="Amacron" unicode="&#x100;" horiz-adv-x="708" 
d="M340 735l370 -735h-131l-60 120h-339l-55 -120h-135zM459 240l-116 231l-107 -231h223zM184 900h317v-98h-317v98z" />
    <glyph glyph-name="amacron" unicode="&#x101;" horiz-adv-x="588" 
d="M418 38q-29 -21 -64 -34.5t-73 -13.5q-54 0 -102 20.5t-83 55.5t-55.5 82.5t-20.5 101.5t20.5 101.5t55.5 82.5t83 55.5t102 20.5q37 0 72.5 -13.5t64.5 -34.5v38h120v-500h-120v38zM418 330q-2 3 -11 13.5t-25 21.5t-39.5 20t-56.5 9q-31 0 -57 -11.5t-45.5 -31
t-30.5 -45.5t-11 -56t11 -56t30.5 -45.5t45.5 -31t57 -11.5q35 0 60 10t41 23q18 14 31 33v158zM134 700h317v-98h-317v98z" />
    <glyph glyph-name="Abreve" unicode="&#x102;" horiz-adv-x="708" 
d="M340 735l370 -735h-131l-60 120h-339l-55 -120h-135zM459 240l-116 231l-107 -231h223zM257 930q8 -27 28.5 -44.5t43.5 -17.5q26 0 47 17.5t33 44.5h110q-10 -35 -29 -62.5t-44 -46.5t-55 -29t-62 -10t-61.5 10t-54.5 29t-44 46.5t-29 62.5h117z" />
    <glyph glyph-name="abreve" unicode="&#x103;" horiz-adv-x="588" 
d="M418 38q-29 -21 -64 -34.5t-73 -13.5q-54 0 -102 20.5t-83 55.5t-55.5 82.5t-20.5 101.5t20.5 101.5t55.5 82.5t83 55.5t102 20.5q37 0 72.5 -13.5t64.5 -34.5v38h120v-500h-120v38zM418 330q-2 3 -11 13.5t-25 21.5t-39.5 20t-56.5 9q-31 0 -57 -11.5t-45.5 -31
t-30.5 -45.5t-11 -56t11 -56t30.5 -45.5t45.5 -31t57 -11.5q35 0 60 10t41 23q18 14 31 33v158zM203 700q8 -27 28.5 -44.5t43.5 -17.5q26 0 47 17.5t33 44.5h110q-10 -35 -29 -62.5t-44 -46.5t-55 -29t-62 -10t-61.5 10t-54.5 29t-44 46.5t-29 62.5h117z" />
    <glyph glyph-name="Aogonek" unicode="&#x104;" horiz-adv-x="700" 
d="M340 735l370 -735h-131l-60 120h-339l-55 -120h-135zM459 240l-116 231l-107 -231h223zM610 -200q-48 0 -72 21t-24 55q0 25 12 44t27 32l60 48h75l-63 -85q-6 -8 -9.5 -13.5t-3.5 -11.5q0 -5 3.5 -10t13.5 -5h24v-75h-43z" />
    <glyph glyph-name="aogonek" unicode="&#x105;" horiz-adv-x="588" 
d="M418 38q-29 -21 -64 -34.5t-73 -13.5q-54 0 -102 20.5t-83 55.5t-55.5 82.5t-20.5 101.5t20.5 101.5t55.5 82.5t83 55.5t102 20.5q37 0 72.5 -13.5t64.5 -34.5v38h120v-500h-120v38zM418 330q-2 3 -11 13.5t-25 21.5t-39.5 20t-56.5 9q-31 0 -57 -11.5t-45.5 -31
t-30.5 -45.5t-11 -56t11 -56t30.5 -45.5t45.5 -31t57 -11.5q35 0 60 10t41 23q18 14 31 33v158zM440 -200q-48 0 -72 21t-24 55q0 25 12 44t27 32l60 48h75l-63 -85q-6 -8 -9.5 -13.5t-3.5 -11.5q0 -5 3.5 -10t13.5 -5h24v-75h-43z" />
    <glyph glyph-name="Cacute" unicode="&#x106;" horiz-adv-x="736" 
d="M741 230q-18 -56 -50 -101t-76.5 -77.5t-98.5 -50t-115 -17.5q-76 0 -143 29t-117 78.5t-79 116.5t-29 142q0 76 29 143t79 116.5t117 78t143 28.5q58 0 111 -17.5t96.5 -49t75.5 -74.5t50 -95h-145q-27 52 -74.5 80.5t-113.5 28.5q-51 0 -93.5 -18t-73 -50t-47.5 -75.5
t-17 -95.5q0 -51 17 -94.5t47.5 -76t73 -50.5t93.5 -18q72 0 120.5 29t77.5 90h142zM564 900l-118 -110h-149l121 110h146z" />
    <glyph glyph-name="cacute" unicode="&#x107;" horiz-adv-x="532" 
d="M522 170q-11 -40 -34.5 -73t-55 -57t-70.5 -37t-81 -13q-54 0 -102 20.5t-83 55.5t-55.5 82.5t-20.5 101.5t20.5 101.5t55.5 82.5t83 55.5t102 20.5q42 0 80.5 -13t70 -37t54.5 -57t34 -73h-134q-13 30 -42.5 46.5t-62.5 16.5q-30 0 -55 -11t-43.5 -30.5t-29 -45.5
t-10.5 -56t10.5 -55.5t29 -44.5t43.5 -30t55 -11q33 0 63 15.5t44 45.5h134zM454 700l-118 -110h-149l121 110h146z" />
    <glyph glyph-name="Ccircumflex" unicode="&#x108;" horiz-adv-x="736" 
d="M741 230q-18 -56 -50 -101t-76.5 -77.5t-98.5 -50t-115 -17.5q-76 0 -143 29t-117 78.5t-79 116.5t-29 142q0 76 29 143t79 116.5t117 78t143 28.5q58 0 111 -17.5t96.5 -49t75.5 -74.5t50 -95h-145q-27 52 -74.5 80.5t-113.5 28.5q-51 0 -93.5 -18t-73 -50t-47.5 -75.5
t-17 -95.5q0 -51 17 -94.5t47.5 -76t73 -50.5t93.5 -18q72 0 120.5 29t77.5 90h142zM308 900h178l113 -110h-145l-57 60l-57 -60h-145z" />
    <glyph glyph-name="ccircumflex" unicode="&#x109;" horiz-adv-x="532" 
d="M522 170q-11 -40 -34.5 -73t-55 -57t-70.5 -37t-81 -13q-54 0 -102 20.5t-83 55.5t-55.5 82.5t-20.5 101.5t20.5 101.5t55.5 82.5t83 55.5t102 20.5q42 0 80.5 -13t70 -37t54.5 -57t34 -73h-134q-13 30 -42.5 46.5t-62.5 16.5q-30 0 -55 -11t-43.5 -30.5t-29 -45.5
t-10.5 -56t10.5 -55.5t29 -44.5t43.5 -30t55 -11q33 0 63 15.5t44 45.5h134zM193 700h178l113 -110h-145l-57 60l-57 -60h-145z" />
    <glyph glyph-name="Cdotaccent" unicode="&#x10a;" horiz-adv-x="736" 
d="M741 230q-18 -56 -50 -101t-76.5 -77.5t-98.5 -50t-115 -17.5q-76 0 -143 29t-117 78.5t-79 116.5t-29 142q0 76 29 143t79 116.5t117 78t143 28.5q58 0 111 -17.5t96.5 -49t75.5 -74.5t50 -95h-145q-27 52 -74.5 80.5t-113.5 28.5q-51 0 -93.5 -18t-73 -50t-47.5 -75.5
t-17 -95.5q0 -51 17 -94.5t47.5 -76t73 -50.5t93.5 -18q72 0 120.5 29t77.5 90h142zM331 900h130v-119h-130v119z" />
    <glyph glyph-name="cdotaccent" unicode="&#x10b;" horiz-adv-x="532" 
d="M522 170q-11 -40 -34.5 -73t-55 -57t-70.5 -37t-81 -13q-54 0 -102 20.5t-83 55.5t-55.5 82.5t-20.5 101.5t20.5 101.5t55.5 82.5t83 55.5t102 20.5q42 0 80.5 -13t70 -37t54.5 -57t34 -73h-134q-13 30 -42.5 46.5t-62.5 16.5q-30 0 -55 -11t-43.5 -30.5t-29 -45.5
t-10.5 -56t10.5 -55.5t29 -44.5t43.5 -30t55 -11q33 0 63 15.5t44 45.5h134zM215 700h130v-119h-130v119z" />
    <glyph glyph-name="Ccaron" unicode="&#x10c;" horiz-adv-x="736" 
d="M741 230q-18 -56 -50 -101t-76.5 -77.5t-98.5 -50t-115 -17.5q-76 0 -143 29t-117 78.5t-79 116.5t-29 142q0 76 29 143t79 116.5t117 78t143 28.5q58 0 111 -17.5t96.5 -49t75.5 -74.5t50 -95h-145q-27 52 -74.5 80.5t-113.5 28.5q-51 0 -93.5 -18t-73 -50t-47.5 -75.5
t-17 -95.5q0 -51 17 -94.5t47.5 -76t73 -50.5t93.5 -18q72 0 120.5 29t77.5 90h142zM475 790h-178l-113 110h145l57 -60l57 60h145z" />
    <glyph glyph-name="ccaron" unicode="&#x10d;" horiz-adv-x="532" 
d="M522 170q-11 -40 -34.5 -73t-55 -57t-70.5 -37t-81 -13q-54 0 -102 20.5t-83 55.5t-55.5 82.5t-20.5 101.5t20.5 101.5t55.5 82.5t83 55.5t102 20.5q42 0 80.5 -13t70 -37t54.5 -57t34 -73h-134q-13 30 -42.5 46.5t-62.5 16.5q-30 0 -55 -11t-43.5 -30.5t-29 -45.5
t-10.5 -56t10.5 -55.5t29 -44.5t43.5 -30t55 -11q33 0 63 15.5t44 45.5h134zM370 590h-178l-113 110h145l57 -60l57 60h145z" />
    <glyph glyph-name="Dcaron" unicode="&#x10e;" horiz-adv-x="671" 
d="M60 700h201q85 0 156 -26.5t122 -73t79 -111t28 -139.5t-27.5 -139.5t-79 -111t-124.5 -73t-163 -26.5h-192v700zM190 580v-460h63q68 0 117 17t81 48t47.5 73t15.5 92t-15.5 92.5t-47.5 73t-81 47.5t-117 17h-63zM403 790h-178l-113 110h145l57 -60l57 60h145z" />
    <glyph glyph-name="dcaron" unicode="&#x10f;" horiz-adv-x="714" 
d="M418 38q-29 -21 -64 -34.5t-73 -13.5q-54 0 -102 20.5t-83 55.5t-55.5 82.5t-20.5 101.5t20.5 101.5t55.5 82.5t83 55.5t102 20.5q37 0 72.5 -13.5t64.5 -34.5v238h120v-700h-120v38zM418 330q-2 3 -11 13.5t-25 21.5t-39.5 20t-56.5 9q-31 0 -57 -11.5t-45.5 -31
t-30.5 -45.5t-11 -56t11 -56t30.5 -45.5t45.5 -31t57 -11.5q35 0 60 10t41 23q18 14 31 33v158zM585 483q31 7 44.5 29.5t13.5 57.5h-58v130h130v-121q0 -37 -11 -62.5t-29 -42t-41.5 -25t-48.5 -11.5v45z" />
    <glyph glyph-name="Dcroat" unicode="&#x110;" horiz-adv-x="671" 
d="M60 700h201q85 0 156 -26.5t122 -73t79 -111t28 -139.5t-27.5 -139.5t-79 -111t-124.5 -73t-163 -26.5h-192v306h-50v93h50v301zM190 580v-181h155v-93h-155v-186h63q68 0 117 17t81 48t47.5 73t15.5 92t-15.5 92.5t-47.5 73t-81 47.5t-117 17h-63z" />
    <glyph glyph-name="dcroat" unicode="&#x111;" horiz-adv-x="588" 
d="M418 38q-29 -21 -64 -34.5t-73 -13.5q-54 0 -102 20.5t-83 55.5t-55.5 82.5t-20.5 101.5t20.5 101.5t55.5 82.5t83 55.5t102 20.5q37 0 72.5 -13.5t64.5 -34.5v103h-90v78h90v57h120v-57h50v-78h-50v-565h-120v38zM418 330q-2 3 -11 13.5t-25 21.5t-39.5 20t-56.5 9
q-31 0 -57 -11.5t-45.5 -31t-30.5 -45.5t-11 -56t11 -56t30.5 -45.5t45.5 -31t57 -11.5q35 0 60 10t41 23q18 14 31 33v158z" />
    <glyph glyph-name="Emacron" unicode="&#x112;" horiz-adv-x="541" 
d="M60 700h436v-120h-306v-155h278v-120h-278v-185h306v-120h-436v700zM117 900h317v-98h-317v98z" />
    <glyph glyph-name="emacron" unicode="&#x113;" horiz-adv-x="572" 
d="M529 150q-17 -40 -44 -70t-60 -50t-70.5 -30t-74.5 -10q-54 0 -101 20.5t-81.5 55.5t-54 82.5t-19.5 101.5t19.5 101.5t54 82.5t81.5 55.5t101 20.5t98 -16.5t76 -46t52.5 -69t27.5 -84.5q4 -23 5 -45.5t1 -48.5h-390q3 -20 15.5 -38.5t30.5 -32t40 -21.5t44 -8
q32 0 53.5 7.5t35.5 17.5q16 11 26 25h134zM408 293q-3 21 -12.5 40t-26 33.5t-39 23t-50.5 8.5q-26 0 -48.5 -9t-40 -23.5t-29 -33t-14.5 -39.5h260zM129 700h317v-98h-317v98z" />
    <glyph glyph-name="Ebreve" unicode="&#x114;" horiz-adv-x="541" 
d="M60 700h436v-120h-306v-155h278v-120h-278v-185h306v-120h-436v700zM191 900q8 -27 28.5 -44.5t43.5 -17.5q26 0 47 17.5t33 44.5h110q-10 -35 -29 -62.5t-44 -46.5t-55 -29t-62 -10t-61.5 10t-54.5 29t-44 46.5t-29 62.5h117z" />
    <glyph glyph-name="ebreve" unicode="&#x115;" horiz-adv-x="572" 
d="M529 150q-17 -40 -44 -70t-60 -50t-70.5 -30t-74.5 -10q-54 0 -101 20.5t-81.5 55.5t-54 82.5t-19.5 101.5t19.5 101.5t54 82.5t81.5 55.5t101 20.5t98 -16.5t76 -46t52.5 -69t27.5 -84.5q4 -23 5 -45.5t1 -48.5h-390q3 -20 15.5 -38.5t30.5 -32t40 -21.5t44 -8
q32 0 53.5 7.5t35.5 17.5q16 11 26 25h134zM408 293q-3 21 -12.5 40t-26 33.5t-39 23t-50.5 8.5q-26 0 -48.5 -9t-40 -23.5t-29 -33t-14.5 -39.5h260zM196 700q8 -27 28.5 -44.5t43.5 -17.5q26 0 47 17.5t33 44.5h110q-10 -35 -29 -62.5t-44 -46.5t-55 -29t-62 -10t-61.5 10
t-54.5 29t-44 46.5t-29 62.5h117z" />
    <glyph glyph-name="Edotaccent" unicode="&#x116;" horiz-adv-x="541" 
d="M60 700h436v-120h-306v-155h278v-120h-278v-185h306v-120h-436v700zM208 900h130v-119h-130v119z" />
    <glyph glyph-name="edotaccent" unicode="&#x117;" horiz-adv-x="572" 
d="M529 150q-17 -40 -44 -70t-60 -50t-70.5 -30t-74.5 -10q-54 0 -101 20.5t-81.5 55.5t-54 82.5t-19.5 101.5t19.5 101.5t54 82.5t81.5 55.5t101 20.5t98 -16.5t76 -46t52.5 -69t27.5 -84.5q4 -23 5 -45.5t1 -48.5h-390q3 -20 15.5 -38.5t30.5 -32t40 -21.5t44 -8
q32 0 53.5 7.5t35.5 17.5q16 11 26 25h134zM408 293q-3 21 -12.5 40t-26 33.5t-39 23t-50.5 8.5q-26 0 -48.5 -9t-40 -23.5t-29 -33t-14.5 -39.5h260zM219 700h130v-119h-130v119z" />
    <glyph glyph-name="Eogonek" unicode="&#x118;" horiz-adv-x="541" 
d="M60 700h436v-120h-306v-155h278v-120h-278v-185h306v-120h-436v700zM390 -200q-48 0 -72 21t-24 55q0 25 12 44t27 32l60 48h75l-63 -85q-6 -8 -9.5 -13.5t-3.5 -11.5q0 -5 3.5 -10t13.5 -5h24v-75h-43z" />
    <glyph glyph-name="eogonek" unicode="&#x119;" horiz-adv-x="576" 
d="M535 150q-23 -50 -58 -85l-111 -150q-6 -8 -9.5 -13.5t-3.5 -11.5q0 -5 3.5 -10t13.5 -5h24v-75h-43q-48 0 -72 21t-24 55q0 25 12 44t27 32q4 4 12 10.5t16.5 13t16 13t11.5 9.5q-34 -8 -64 -8q-54 0 -101 20.5t-81.5 55.5t-54 82.5t-19.5 101.5t19.5 101.5t54 82.5
t81.5 55.5t101 20.5t98 -16.5t76 -46t52.5 -69t27.5 -84.5q4 -23 5 -45.5t1 -48.5h-390q3 -20 15.5 -38.5t30.5 -32t40 -21.5t44 -8q32 0 53.5 7.5t35.5 17.5q16 11 26 25h134zM414 293q-3 21 -12.5 40t-26 33.5t-39 23t-50.5 8.5q-26 0 -48.5 -9t-40 -23.5t-29 -33
t-14.5 -39.5h260z" />
    <glyph glyph-name="Ecaron" unicode="&#x11a;" horiz-adv-x="541" 
d="M60 700h436v-120h-306v-155h278v-120h-278v-185h306v-120h-436v700zM367 790h-178l-113 110h145l57 -60l57 60h145z" />
    <glyph glyph-name="ecaron" unicode="&#x11b;" horiz-adv-x="572" 
d="M529 150q-17 -40 -44 -70t-60 -50t-70.5 -30t-74.5 -10q-54 0 -101 20.5t-81.5 55.5t-54 82.5t-19.5 101.5t19.5 101.5t54 82.5t81.5 55.5t101 20.5t98 -16.5t76 -46t52.5 -69t27.5 -84.5q4 -23 5 -45.5t1 -48.5h-390q3 -20 15.5 -38.5t30.5 -32t40 -21.5t44 -8
q32 0 53.5 7.5t35.5 17.5q16 11 26 25h134zM408 293q-3 21 -12.5 40t-26 33.5t-39 23t-50.5 8.5q-26 0 -48.5 -9t-40 -23.5t-29 -33t-14.5 -39.5h260zM376 590h-178l-113 110h145l57 -60l57 60h145z" />
    <glyph glyph-name="Gcircumflex" unicode="&#x11c;" horiz-adv-x="776" 
d="M392 108q97 0 148.5 40.5t66.5 111.5h-215v120h360q0 -94 -25.5 -167.5t-72 -124.5t-113.5 -77.5t-149 -26.5q-76 0 -143 29t-117 78.5t-79 116.5t-29 142q0 76 29 143t79 116.5t117 78t143 28.5q61 0 114.5 -17.5t97 -49t75 -74.5t49.5 -95h-143q-26 52 -74 82t-119 30
q-51 0 -94 -18.5t-74 -51t-48.5 -76.5t-17.5 -96q0 -51 17.5 -95t48.5 -77t74 -51.5t94 -18.5zM303 900h178l113 -110h-145l-57 60l-57 -60h-145z" />
    <glyph glyph-name="gcircumflex" unicode="&#x11d;" horiz-adv-x="588" 
d="M255 -86h18q78 0 111.5 30t33.5 90v4q-29 -21 -64 -34.5t-73 -13.5q-54 0 -102 20.5t-83 55.5t-55.5 82.5t-20.5 101.5t20.5 101.5t55.5 82.5t83 55.5t102 20.5q37 0 72.5 -13.5t64.5 -34.5v38h120v-448q0 -125 -65.5 -188.5t-199.5 -63.5h-18v114zM418 330
q-2 3 -11 13.5t-25 21.5t-39.5 20t-56.5 9q-31 0 -57 -11.5t-45.5 -31t-30.5 -45.5t-11 -56t11 -56t30.5 -45.5t45.5 -31t57 -11.5q35 0 60 10t41 23q18 14 31 33v158zM203 700h178l113 -110h-145l-57 60l-57 -60h-145z" />
    <glyph glyph-name="Gbreve" unicode="&#x11e;" horiz-adv-x="776" 
d="M392 108q97 0 148.5 40.5t66.5 111.5h-215v120h360q0 -94 -25.5 -167.5t-72 -124.5t-113.5 -77.5t-149 -26.5q-76 0 -143 29t-117 78.5t-79 116.5t-29 142q0 76 29 143t79 116.5t117 78t143 28.5q61 0 114.5 -17.5t97 -49t75 -74.5t49.5 -95h-143q-26 52 -74 82t-119 30
q-51 0 -94 -18.5t-74 -51t-48.5 -76.5t-17.5 -96q0 -51 17.5 -95t48.5 -77t74 -51.5t94 -18.5zM308 900q8 -27 28.5 -44.5t43.5 -17.5q26 0 47 17.5t33 44.5h110q-10 -35 -29 -62.5t-44 -46.5t-55 -29t-62 -10t-61.5 10t-54.5 29t-44 46.5t-29 62.5h117z" />
    <glyph glyph-name="gbreve" unicode="&#x11f;" horiz-adv-x="588" 
d="M255 -86h18q78 0 111.5 30t33.5 90v4q-29 -21 -64 -34.5t-73 -13.5q-54 0 -102 20.5t-83 55.5t-55.5 82.5t-20.5 101.5t20.5 101.5t55.5 82.5t83 55.5t102 20.5q37 0 72.5 -13.5t64.5 -34.5v38h120v-448q0 -125 -65.5 -188.5t-199.5 -63.5h-18v114zM418 330
q-2 3 -11 13.5t-25 21.5t-39.5 20t-56.5 9q-31 0 -57 -11.5t-45.5 -31t-30.5 -45.5t-11 -56t11 -56t30.5 -45.5t45.5 -31t57 -11.5q35 0 60 10t41 23q18 14 31 33v158zM203 700q8 -27 28.5 -44.5t43.5 -17.5q26 0 47 17.5t33 44.5h110q-10 -35 -29 -62.5t-44 -46.5t-55 -29
t-62 -10t-61.5 10t-54.5 29t-44 46.5t-29 62.5h117z" />
    <glyph glyph-name="Gdotaccent" unicode="&#x120;" horiz-adv-x="776" 
d="M392 108q97 0 148.5 40.5t66.5 111.5h-215v120h360q0 -94 -25.5 -167.5t-72 -124.5t-113.5 -77.5t-149 -26.5q-76 0 -143 29t-117 78.5t-79 116.5t-29 142q0 76 29 143t79 116.5t117 78t143 28.5q61 0 114.5 -17.5t97 -49t75 -74.5t49.5 -95h-143q-26 52 -74 82t-119 30
q-51 0 -94 -18.5t-74 -51t-48.5 -76.5t-17.5 -96q0 -51 17.5 -95t48.5 -77t74 -51.5t94 -18.5zM328 900h130v-119h-130v119z" />
    <glyph glyph-name="gdotaccent" unicode="&#x121;" horiz-adv-x="588" 
d="M255 -86h18q78 0 111.5 30t33.5 90v4q-29 -21 -64 -34.5t-73 -13.5q-54 0 -102 20.5t-83 55.5t-55.5 82.5t-20.5 101.5t20.5 101.5t55.5 82.5t83 55.5t102 20.5q37 0 72.5 -13.5t64.5 -34.5v38h120v-448q0 -125 -65.5 -188.5t-199.5 -63.5h-18v114zM418 330
q-2 3 -11 13.5t-25 21.5t-39.5 20t-56.5 9q-31 0 -57 -11.5t-45.5 -31t-30.5 -45.5t-11 -56t11 -56t30.5 -45.5t45.5 -31t57 -11.5q35 0 60 10t41 23q18 14 31 33v158zM227 700h130v-119h-130v119z" />
    <glyph glyph-name="Gcommaaccent" unicode="&#x122;" horiz-adv-x="776" 
d="M392 108q97 0 148.5 40.5t66.5 111.5h-215v120h360q0 -94 -25.5 -167.5t-72 -124.5t-113.5 -77.5t-149 -26.5q-76 0 -143 29t-117 78.5t-79 116.5t-29 142q0 76 29 143t79 116.5t117 78t143 28.5q61 0 114.5 -17.5t97 -49t75 -74.5t49.5 -95h-143q-26 52 -74 82t-119 30
q-51 0 -94 -18.5t-74 -51t-48.5 -76.5t-17.5 -96q0 -51 17.5 -95t48.5 -77t74 -51.5t94 -18.5zM339 -217q15 3 24 10.5t14 15.5t6.5 16.5t1.5 14.5h-46v100h112v-98q0 -37 -32 -62t-80 -30v33z" />
    <glyph glyph-name="gcommaaccent" unicode="&#x123;" horiz-adv-x="588" 
d="M255 -86h18q78 0 111.5 30t33.5 90v4q-29 -21 -64 -34.5t-73 -13.5q-54 0 -102 20.5t-83 55.5t-55.5 82.5t-20.5 101.5t20.5 101.5t55.5 82.5t83 55.5t102 20.5q37 0 72.5 -13.5t64.5 -34.5v38h120v-448q0 -125 -65.5 -188.5t-199.5 -63.5h-18v114zM418 330
q-2 3 -11 13.5t-25 21.5t-39.5 20t-56.5 9q-31 0 -57 -11.5t-45.5 -31t-30.5 -45.5t-11 -56t11 -56t30.5 -45.5t45.5 -31t57 -11.5q35 0 60 10t41 23q18 14 31 33v158zM340 720q-15 -3 -24 -10.5t-14 -15.5t-6.5 -16.5t-1.5 -14.5h46v-100h-112v98q0 37 32 62t80 30v-33z
" />
    <glyph glyph-name="Hcircumflex" unicode="&#x124;" horiz-adv-x="672" 
d="M60 700h130v-275h292v275h130v-700h-130v305h-292v-305h-130v700zM248 900h178l113 -110h-145l-57 60l-57 -60h-145z" />
    <glyph glyph-name="hcircumflex" unicode="&#x125;" horiz-adv-x="578" 
d="M39 700h120v-238q29 21 65 34.5t74 13.5q116 0 172.5 -62.5t56.5 -177.5v-270h-122v270q0 57 -26 91t-88 34q-28 0 -50 -7t-38.5 -17.5t-27.5 -21.5t-16 -20v-329h-120v700zM128 900h178l113 -110h-145l-57 60l-57 -60h-145z" />
    <glyph glyph-name="Hbar" unicode="&#x126;" horiz-adv-x="672" 
d="M10 589h50v111h130v-111h292v111h130v-111h50v-98h-50v-491h-130v305h-292v-305h-130v491h-50v98zM482 425v66h-292v-66h292z" />
    <glyph glyph-name="hbar" unicode="&#x127;" horiz-adv-x="578" 
d="M37 700h120v-57h103v-78h-103v-103q29 21 65 34.5t74 13.5q116 0 172.5 -62.5t56.5 -177.5v-270h-122v270q0 57 -26 91t-88 34q-28 0 -50 -7t-38.5 -17.5t-27.5 -21.5t-16 -20v-329h-120v565h-37v78h37v57z" />
    <glyph glyph-name="Itilde" unicode="&#x128;" horiz-adv-x="250" 
d="M60 700h130v-700h-130v700zM-60 758q0 20 6 45t20 47.5t38.5 38t60.5 15.5q28 0 45.5 -8.5t30 -18t23.5 -18t27 -8.5q7 0 11.5 5t7.5 12.5t4.5 16t1.5 15.5h99q0 -17 -5.5 -41.5t-19 -47.5t-37 -39.5t-60.5 -16.5q-23 0 -40.5 8.5t-32 18t-27.5 18t-26 8.5
q-15 0 -21.5 -17t-6.5 -33h-99z" />
    <glyph glyph-name="itilde" unicode="&#x129;" horiz-adv-x="220" 
d="M50 500h120v-500h-120v500zM-75 558q0 20 6 45t20 47.5t38.5 38t60.5 15.5q28 0 45.5 -8.5t30 -18t23.5 -18t27 -8.5q7 0 11.5 5t7.5 12.5t4.5 16t1.5 15.5h99q0 -17 -5.5 -41.5t-19 -47.5t-37 -39.5t-60.5 -16.5q-23 0 -40.5 8.5t-32 18t-27.5 18t-26 8.5
q-15 0 -21.5 -17t-6.5 -33h-99z" />
    <glyph glyph-name="Imacron" unicode="&#x12a;" horiz-adv-x="250" 
d="M60 700h130v-700h-130v700zM-31 900h317v-98h-317v98z" />
    <glyph glyph-name="imacron" unicode="&#x12b;" horiz-adv-x="220" 
d="M50 500h120v-500h-120v500zM-46 700h317v-98h-317v98z" />
    <glyph glyph-name="Ibreve" unicode="&#x12c;" horiz-adv-x="250" 
d="M60 700h130v-700h-130v700zM42 900q8 -27 28.5 -44.5t43.5 -17.5q26 0 47 17.5t33 44.5h110q-10 -35 -29 -62.5t-44 -46.5t-55 -29t-62 -10t-61.5 10t-54.5 29t-44 46.5t-29 62.5h117z" />
    <glyph glyph-name="ibreve" unicode="&#x12d;" horiz-adv-x="220" 
d="M50 500h120v-500h-120v500zM28 700q8 -27 28.5 -44.5t43.5 -17.5q26 0 47 17.5t33 44.5h110q-10 -35 -29 -62.5t-44 -46.5t-55 -29t-62 -10t-61.5 10t-54.5 29t-44 46.5t-29 62.5h117z" />
    <glyph glyph-name="Iogonek" unicode="&#x12e;" horiz-adv-x="250" 
d="M60 700h130v-700h-19l-46 -81q-10 -18 -10 -29q0 -5 3 -10t12 -5h26v-75h-51q-44 0 -65.5 21t-21.5 55q0 25 10.5 44t24.5 34l43 46h-36v700z" />
    <glyph glyph-name="iogonek" unicode="&#x12f;" horiz-adv-x="220" 
d="M50 500h120v-500h-19l-46 -81q-10 -18 -10 -29q0 -5 3 -10t12 -5h26v-75h-51q-44 0 -65.5 21t-21.5 55q0 25 10.5 44t24.5 35l43 45h-26v500zM50 700h120v-120h-120v120z" />
    <glyph glyph-name="Idotaccent" unicode="&#x130;" horiz-adv-x="250" 
d="M60 700h130v-700h-130v700zM60 900h130v-119h-130v119z" />
    <glyph glyph-name="IJ" unicode="&#x132;" horiz-adv-x="690" 
d="M51 700h130v-700h-130v700zM345 205q0 -49 22 -74.5t59 -25.5q42 0 63.5 27t21.5 87v481h129v-495q0 -49 -13 -89.5t-39.5 -69.5t-66.5 -45t-94 -16q-98 0 -154 53.5t-56 166.5h128z" />
    <glyph glyph-name="ij" unicode="&#x133;" horiz-adv-x="427" 
d="M50 500h120v-500h-120v500zM50 700h120v-120h-120v120zM257 700h120v-120h-120v120zM170 -200v114h17q13 0 25.5 3.5t22.5 12.5t16 24t6 38v508h120v-504q0 -54 -13.5 -91.5t-36.5 -60.5t-54 -33.5t-66 -10.5h-37z" />
    <glyph glyph-name="Jcircumflex" unicode="&#x134;" horiz-adv-x="483" 
d="M128 205q0 -49 22 -74.5t59 -25.5q42 0 63.5 27t21.5 87v481h129v-495q0 -49 -13 -89.5t-39.5 -69.5t-66.5 -45t-94 -16q-98 0 -154 53.5t-56 166.5h128zM249 900h178l113 -110h-145l-57 60l-57 -60h-145z" />
    <glyph glyph-name="jcircumflex" unicode="&#x135;" horiz-adv-x="227" 
d="M-30 -200v114h17q13 0 25.5 3.5t22.5 12.5t16 24t6 38v508h120v-504q0 -54 -13.5 -91.5t-36.5 -60.5t-54 -33.5t-66 -10.5h-37zM24 700h178l113 -110h-145l-57 60l-57 -60h-145z" />
    <glyph glyph-name="Kcommaaccent" unicode="&#x136;" horiz-adv-x="660" 
d="M210 364l269 336h160l-273 -336l299 -364h-160zM60 700h130v-700h-130v700zM250 -217q15 3 24 10.5t14 15.5t6.5 16.5t1.5 14.5h-46v100h112v-98q0 -37 -32 -62t-80 -30v33z" />
    <glyph glyph-name="kcommaaccent" unicode="&#x137;" horiz-adv-x="539" 
d="M50 700h120v-700h-120v700zM185 260l200 240h156l-201 -240l222 -260h-159zM200 -217q15 3 24 10.5t14 15.5t6.5 16.5t1.5 14.5h-46v100h112v-98q0 -37 -32 -62t-80 -30v33z" />
    <glyph glyph-name="kgreenlandic" unicode="&#x138;" horiz-adv-x="539" 
d="M50 500h120v-500h-120v500zM185 260l200 240h156l-201 -240l222 -260h-159z" />
    <glyph glyph-name="Lacute" unicode="&#x139;" horiz-adv-x="479" 
d="M60 0v700h130v-580h279v-120h-409zM332 900l-118 -110h-149l121 110h146z" />
    <glyph glyph-name="lacute" unicode="&#x13a;" horiz-adv-x="220" 
d="M50 700h120v-700h-120v700zM265 900l-118 -110h-149l121 110h146z" />
    <glyph glyph-name="Lcommaaccent" unicode="&#x13b;" horiz-adv-x="479" 
d="M60 0v700h130v-580h279v-120h-409zM210 -217q15 3 24 10.5t14 15.5t6.5 16.5t1.5 14.5h-46v100h112v-98q0 -37 -32 -62t-80 -30v33z" />
    <glyph glyph-name="lcommaaccent" unicode="&#x13c;" horiz-adv-x="220" 
d="M50 700h120v-700h-120v700zM56 -217q15 3 24 10.5t14 15.5t6.5 16.5t1.5 14.5h-46v100h112v-98q0 -37 -32 -62t-80 -30v33z" />
    <glyph glyph-name="Lcaron" unicode="&#x13d;" horiz-adv-x="479" 
d="M60 0v700h130v-580h279v-120h-409zM284 483q31 7 44.5 29.5t13.5 57.5h-58v130h130v-121q0 -37 -11 -62.5t-29 -42t-41.5 -25t-48.5 -11.5v45z" />
    <glyph glyph-name="lcaron" unicode="&#x13e;" horiz-adv-x="331" 
d="M50 700h120v-700h-120v700zM206 483q31 7 44.5 29.5t13.5 57.5h-58v130h130v-121q0 -37 -11 -62.5t-29 -42t-41.5 -25t-48.5 -11.5v45z" />
    <glyph glyph-name="Ldot" unicode="&#x13f;" horiz-adv-x="479" 
d="M60 0v700h130v-580h279v-120h-409zM274 421h130v-130h-130v130z" />
    <glyph glyph-name="ldot" unicode="&#x140;" horiz-adv-x="330" 
d="M50 700h120v-700h-120v700zM210 421h130v-130h-130v130z" />
    <glyph glyph-name="Lslash" unicode="&#x141;" horiz-adv-x="479" 
d="M60 0v309l-50 -25v87l50 24v305h130v-241l82 41l-1 -85l-81 -41v-254h279v-120h-409z" />
    <glyph glyph-name="lslash" unicode="&#x142;" horiz-adv-x="224" 
d="M47 700h120v-228l57 28v-85l-57 -29v-386h-120v325l-47 -23v87l47 23v288z" />
    <glyph glyph-name="Nacute" unicode="&#x143;" horiz-adv-x="708" 
d="M60 725l458 -453v428h130v-725l-458 449v-424h-130v725zM546 900l-118 -110h-149l121 110h146z" />
    <glyph glyph-name="nacute" unicode="&#x144;" horiz-adv-x="568" 
d="M50 500h120v-38q29 21 65 34.5t74 13.5q107 0 163 -62.5t56 -177.5v-270h-122v270q0 57 -25.5 91t-78.5 34q-28 0 -50 -7t-38.5 -17.5t-27.5 -21.5t-16 -20v-329h-120v500zM479 700l-118 -110h-149l121 110h146z" />
    <glyph glyph-name="Ncommaaccent" unicode="&#x145;" horiz-adv-x="713" 
d="M55 725l458 -453v428h130v-725l-458 449v-424h-130v725zM294 -217q15 3 24 10.5t14 15.5t6.5 16.5t1.5 14.5h-46v100h112v-98q0 -37 -32 -62t-80 -30v33z" />
    <glyph glyph-name="ncommaaccent" unicode="&#x146;" horiz-adv-x="568" 
d="M50 500h120v-38q29 21 65 34.5t74 13.5q107 0 163 -62.5t56 -177.5v-270h-122v270q0 57 -25.5 91t-78.5 34q-28 0 -50 -7t-38.5 -17.5t-27.5 -21.5t-16 -20v-329h-120v500zM232 -217q15 3 24 10.5t14 15.5t6.5 16.5t1.5 14.5h-46v100h112v-98q0 -37 -32 -62t-80 -30v33z
" />
    <glyph glyph-name="Ncaron" unicode="&#x147;" horiz-adv-x="708" 
d="M60 725l458 -453v428h130v-725l-458 449v-424h-130v725zM442 790h-178l-113 110h145l57 -60l57 60h145z" />
    <glyph glyph-name="ncaron" unicode="&#x148;" horiz-adv-x="568" 
d="M50 500h120v-38q29 21 65 34.5t74 13.5q107 0 163 -62.5t56 -177.5v-270h-122v270q0 57 -25.5 91t-78.5 34q-28 0 -50 -7t-38.5 -17.5t-27.5 -21.5t-16 -20v-329h-120v500zM385 590h-178l-113 110h145l57 -60l57 60h145z" />
    <glyph glyph-name="napostrophe" unicode="&#x149;" horiz-adv-x="772" 
d="M254 500h120v-38q29 21 65 34.5t74 13.5q107 0 163 -62.5t56 -177.5v-270h-122v270q0 57 -25.5 91t-78.5 34q-28 0 -50 -7t-38.5 -17.5t-27.5 -21.5t-16 -20v-329h-120v500zM45 483q31 7 44.5 29.5t13.5 57.5h-58v130h130v-121q0 -37 -11 -62.5t-29 -42t-41.5 -25
t-48.5 -11.5v45z" />
    <glyph glyph-name="Eng" unicode="&#x14a;" horiz-adv-x="708" 
d="M60 735l458 -465v430h130v-705q0 -54 -14 -91t-37 -60t-54.5 -33.5t-66.5 -10.5h-37v114h17q13 0 24 3.5t19.5 12.5t13.5 24t5 38v106l-328 327v-425h-130v735z" />
    <glyph glyph-name="eng" unicode="&#x14b;" horiz-adv-x="578" 
d="M50 500h120v-38q29 21 65 34.5t74 13.5q107 0 163 -62.5t56 -177.5v-274q0 -54 -13.5 -91.5t-36.5 -60.5t-54 -33.5t-66 -10.5h-37v114h17q13 0 25.5 3.5t22.5 12.5t16 24t6 38v278q0 57 -26.5 91.5t-79.5 34.5q-28 0 -50 -7t-38.5 -17.5t-27.5 -22t-16 -20.5v-329h-120
v500z" />
    <glyph glyph-name="Omacron" unicode="&#x14c;" horiz-adv-x="783" 
d="M24 350q0 76 29 143t79 116.5t117 78t143 28.5t142.5 -28.5t116.5 -78t79 -116.5t29 -143q0 -75 -29 -142t-79 -116.5t-116.5 -78.5t-142.5 -29t-143 29t-117 78.5t-79 116.5t-29 142zM392 589q-51 0 -93.5 -18t-73 -50t-47.5 -75.5t-17 -95.5q0 -51 17 -94.5t47.5 -76
t73 -50.5t93.5 -18t93.5 18t72.5 50.5t47 76t17 94.5q0 52 -17 95.5t-47 75.5t-72.5 50t-93.5 18zM235 900h317v-98h-317v98z" />
    <glyph glyph-name="omacron" unicode="&#x14d;" horiz-adv-x="560" 
d="M20 250q0 54 20.5 101.5t55.5 82.5t82.5 55.5t101.5 20.5t101.5 -20.5t82.5 -55.5t55.5 -82.5t20.5 -101.5t-20.5 -101.5t-55.5 -82.5t-82.5 -55.5t-101.5 -20.5t-101.5 20.5t-82.5 55.5t-55.5 82.5t-20.5 101.5zM280 107q31 0 56 11t43 30t27.5 45t9.5 57t-9.5 57
t-27.5 45t-43 30t-56 11t-56 -11t-43 -30t-28 -45t-10 -57t10 -57t28 -45t43 -30t56 -11zM121 700h317v-98h-317v98z" />
    <glyph glyph-name="Obreve" unicode="&#x14e;" horiz-adv-x="783" 
d="M24 350q0 76 29 143t79 116.5t117 78t143 28.5t142.5 -28.5t116.5 -78t79 -116.5t29 -143q0 -75 -29 -142t-79 -116.5t-116.5 -78.5t-142.5 -29t-143 29t-117 78.5t-79 116.5t-29 142zM392 589q-51 0 -93.5 -18t-73 -50t-47.5 -75.5t-17 -95.5q0 -51 17 -94.5t47.5 -76
t73 -50.5t93.5 -18t93.5 18t72.5 50.5t47 76t17 94.5q0 52 -17 95.5t-47 75.5t-72.5 50t-93.5 18zM305 900q8 -27 28.5 -44.5t43.5 -17.5q26 0 47 17.5t33 44.5h110q-10 -35 -29 -62.5t-44 -46.5t-55 -29t-62 -10t-61.5 10t-54.5 29t-44 46.5t-29 62.5h117z" />
    <glyph glyph-name="obreve" unicode="&#x14f;" horiz-adv-x="560" 
d="M20 250q0 54 20.5 101.5t55.5 82.5t82.5 55.5t101.5 20.5t101.5 -20.5t82.5 -55.5t55.5 -82.5t20.5 -101.5t-20.5 -101.5t-55.5 -82.5t-82.5 -55.5t-101.5 -20.5t-101.5 20.5t-82.5 55.5t-55.5 82.5t-20.5 101.5zM280 107q31 0 56 11t43 30t27.5 45t9.5 57t-9.5 57
t-27.5 45t-43 30t-56 11t-56 -11t-43 -30t-28 -45t-10 -57t10 -57t28 -45t43 -30t56 -11zM191 700q8 -27 28.5 -44.5t43.5 -17.5q26 0 47 17.5t33 44.5h110q-10 -35 -29 -62.5t-44 -46.5t-55 -29t-62 -10t-61.5 10t-54.5 29t-44 46.5t-29 62.5h117z" />
    <glyph glyph-name="Ohungarumlaut" unicode="&#x150;" horiz-adv-x="783" 
d="M24 350q0 76 29 143t79 116.5t117 78t143 28.5t142.5 -28.5t116.5 -78t79 -116.5t29 -143q0 -75 -29 -142t-79 -116.5t-116.5 -78.5t-142.5 -29t-143 29t-117 78.5t-79 116.5t-29 142zM392 589q-51 0 -93.5 -18t-73 -50t-47.5 -75.5t-17 -95.5q0 -51 17 -94.5t47.5 -76
t73 -50.5t93.5 -18t93.5 18t72.5 50.5t47 76t17 94.5q0 52 -17 95.5t-47 75.5t-72.5 50t-93.5 18zM321 900h149l-121 -110h-146zM536 900h149l-121 -110h-146z" />
    <glyph glyph-name="ohungarumlaut" unicode="&#x151;" horiz-adv-x="560" 
d="M20 250q0 54 20.5 101.5t55.5 82.5t82.5 55.5t101.5 20.5t101.5 -20.5t82.5 -55.5t55.5 -82.5t20.5 -101.5t-20.5 -101.5t-55.5 -82.5t-82.5 -55.5t-101.5 -20.5t-101.5 20.5t-82.5 55.5t-55.5 82.5t-20.5 101.5zM280 107q31 0 56 11t43 30t27.5 45t9.5 57t-9.5 57
t-27.5 45t-43 30t-56 11t-56 -11t-43 -30t-28 -45t-10 -57t10 -57t28 -45t43 -30t56 -11zM197 700h149l-121 -110h-146zM412 700h149l-121 -110h-146z" />
    <glyph glyph-name="Racute" unicode="&#x154;" horiz-adv-x="590" 
d="M54 700h273q61 0 107.5 -16t77.5 -44.5t46.5 -68t15.5 -86.5q0 -36 -10 -70.5t-31 -63t-52.5 -50t-73.5 -32.5l189 -269h-153l-183 260h-76v-260h-130v700zM328 380q31 0 53 9t36 23.5t20.5 33.5t6.5 39q0 40 -30.5 67.5t-85.5 27.5h-144v-200h144zM432 900l-118 -110
h-149l121 110h146z" />
    <glyph glyph-name="racute" unicode="&#x155;" horiz-adv-x="324" 
d="M50 500h120v-56q19 23 45.5 39.5t64.5 16.5h34v-114h-26q-37 0 -70 -23t-48 -64v-299h-120v500zM329 700l-118 -110h-149l121 110h146z" />
    <glyph glyph-name="Rcommaaccent" unicode="&#x156;" horiz-adv-x="590" 
d="M54 700h273q61 0 107.5 -16t77.5 -44.5t46.5 -68t15.5 -86.5q0 -36 -10 -70.5t-31 -63t-52.5 -50t-73.5 -32.5l189 -269h-153l-183 260h-76v-260h-130v700zM328 380q31 0 53 9t36 23.5t20.5 33.5t6.5 39q0 40 -30.5 67.5t-85.5 27.5h-144v-200h144zM247 -217
q15 3 24 10.5t14 15.5t6.5 16.5t1.5 14.5h-46v100h112v-98q0 -37 -32 -62t-80 -30v33z" />
    <glyph glyph-name="rcommaaccent" unicode="&#x157;" horiz-adv-x="324" 
d="M50 500h120v-56q19 23 45.5 39.5t64.5 16.5h34v-114h-26q-37 0 -70 -23t-48 -64v-299h-120v500zM56 -217q15 3 24 10.5t14 15.5t6.5 16.5t1.5 14.5h-46v100h112v-98q0 -37 -32 -62t-80 -30v33z" />
    <glyph glyph-name="Rcaron" unicode="&#x158;" horiz-adv-x="590" 
d="M54 700h273q61 0 107.5 -16t77.5 -44.5t46.5 -68t15.5 -86.5q0 -36 -10 -70.5t-31 -63t-52.5 -50t-73.5 -32.5l189 -269h-153l-183 260h-76v-260h-130v700zM328 380q31 0 53 9t36 23.5t20.5 33.5t6.5 39q0 40 -30.5 67.5t-85.5 27.5h-144v-200h144zM358 790h-178
l-113 110h145l57 -60l57 60h145z" />
    <glyph glyph-name="rcaron" unicode="&#x159;" horiz-adv-x="324" 
d="M50 500h120v-56q19 23 45.5 39.5t64.5 16.5h34v-114h-26q-37 0 -70 -23t-48 -64v-299h-120v500zM257 590h-178l-113 110h145l57 -60l57 60h145z" />
    <glyph glyph-name="Sacute" unicode="&#x15a;" horiz-adv-x="541" 
d="M173 205q0 -20 8 -38t21.5 -32t32 -22.5t41.5 -8.5q51 0 79.5 24t28.5 66q0 21 -11 36.5t-29 28t-40.5 22.5t-45.5 19q-39 15 -74 32t-62 41t-42.5 58.5t-15.5 84.5q0 42 15.5 78.5t44 63.5t67 42.5t85.5 15.5t86 -15t66.5 -41t42.5 -62t15 -78h-130q-1 32 -23 54t-57 22
t-58.5 -22.5t-23.5 -57.5q0 -18 9.5 -32t25.5 -25.5t37.5 -21.5t44.5 -20q39 -18 76 -35t65 -40.5t45 -56t17 -80.5q0 -50 -18 -91t-50 -70t-75.5 -44.5t-94.5 -15.5q-50 0 -92.5 15.5t-73.5 44.5t-49 70t-18 91h130zM444 900l-118 -110h-149l121 110h146z" />
    <glyph glyph-name="sacute" unicode="&#x15b;" horiz-adv-x="422" 
d="M147 170q1 -26 17 -47t48 -21q26 0 44.5 14t18.5 38q0 23 -23 34.5t-75 25.5q-26 7 -49.5 18t-42 28.5t-29 40.5t-10.5 54q0 36 13.5 64.5t36.5 48.5t54 30.5t66 10.5t66 -13t54 -35t36.5 -51t13.5 -60h-121q-1 23 -15.5 35.5t-33.5 12.5t-33.5 -12.5t-14.5 -30.5
q0 -22 23 -35t81 -29q26 -7 48.5 -18t39 -27t26 -38.5t9.5 -53.5q0 -33 -14.5 -62.5t-39 -52t-58 -35.5t-71.5 -13q-36 0 -68.5 13t-57.5 36.5t-41 56.5t-18 73h120zM394 700l-118 -110h-149l121 110h146z" />
    <glyph glyph-name="Scircumflex" unicode="&#x15c;" horiz-adv-x="541" 
d="M173 205q0 -20 8 -38t21.5 -32t32 -22.5t41.5 -8.5q51 0 79.5 24t28.5 66q0 21 -11 36.5t-29 28t-40.5 22.5t-45.5 19q-39 15 -74 32t-62 41t-42.5 58.5t-15.5 84.5q0 42 15.5 78.5t44 63.5t67 42.5t85.5 15.5t86 -15t66.5 -41t42.5 -62t15 -78h-130q-1 32 -23 54t-57 22
t-58.5 -22.5t-23.5 -57.5q0 -18 9.5 -32t25.5 -25.5t37.5 -21.5t44.5 -20q39 -18 76 -35t65 -40.5t45 -56t17 -80.5q0 -50 -18 -91t-50 -70t-75.5 -44.5t-94.5 -15.5q-50 0 -92.5 15.5t-73.5 44.5t-49 70t-18 91h130zM182 900h178l113 -110h-145l-57 60l-57 -60h-145z" />
    <glyph glyph-name="scircumflex" unicode="&#x15d;" horiz-adv-x="422" 
d="M147 170q1 -26 17 -47t48 -21q26 0 44.5 14t18.5 38q0 23 -23 34.5t-75 25.5q-26 7 -49.5 18t-42 28.5t-29 40.5t-10.5 54q0 36 13.5 64.5t36.5 48.5t54 30.5t66 10.5t66 -13t54 -35t36.5 -51t13.5 -60h-121q-1 23 -15.5 35.5t-33.5 12.5t-33.5 -12.5t-14.5 -30.5
q0 -22 23 -35t81 -29q26 -7 48.5 -18t39 -27t26 -38.5t9.5 -53.5q0 -33 -14.5 -62.5t-39 -52t-58 -35.5t-71.5 -13q-36 0 -68.5 13t-57.5 36.5t-41 56.5t-18 73h120zM124 700h178l113 -110h-145l-57 60l-57 -60h-145z" />
    <glyph glyph-name="Scedilla" unicode="&#x15e;" horiz-adv-x="541" 
d="M173 205q0 -20 8 -38t21.5 -32t32 -22.5t41.5 -8.5q51 0 79.5 24t28.5 66q0 21 -11 36.5t-29 28t-40.5 22.5t-45.5 19q-39 15 -74 32t-62 41t-42.5 58.5t-15.5 84.5q0 42 15.5 78.5t44 63.5t67 42.5t85.5 15.5t86 -15t66.5 -41t42.5 -62t15 -78h-130q-1 32 -23 54t-57 22
t-58.5 -22.5t-23.5 -57.5q0 -18 9.5 -32t25.5 -25.5t37.5 -21.5t44.5 -20q39 -18 76 -35t65 -40.5t45 -56t17 -80.5q0 -50 -18 -91t-50 -70t-75.5 -44.5t-94.5 -15.5q-50 0 -92.5 15.5t-73.5 44.5t-49 70t-18 91h130zM246 -157h20q17 0 17 16q0 5 -2.5 10t-10.5 5h-84l51 74
h43q47 0 73 -26.5t26 -62.5t-23.5 -62.5t-77.5 -26.5h-32v73z" />
    <glyph glyph-name="scedilla" unicode="&#x15f;" horiz-adv-x="422" 
d="M147 170q1 -26 17 -47t48 -21q26 0 44.5 14t18.5 38q0 23 -23 34.5t-75 25.5q-26 7 -49.5 18t-42 28.5t-29 40.5t-10.5 54q0 36 13.5 64.5t36.5 48.5t54 30.5t66 10.5t66 -13t54 -35t36.5 -51t13.5 -60h-121q-1 23 -15.5 35.5t-33.5 12.5t-33.5 -12.5t-14.5 -30.5
q0 -22 23 -35t81 -29q26 -7 48.5 -18t39 -27t26 -38.5t9.5 -53.5q0 -33 -14.5 -62.5t-39 -52t-58 -35.5t-71.5 -13q-36 0 -68.5 13t-57.5 36.5t-41 56.5t-18 73h120zM186 -157h20q17 0 17 16q0 5 -2.5 10t-10.5 5h-84l51 74h43q47 0 73 -26.5t26 -62.5t-23.5 -62.5
t-77.5 -26.5h-32v73z" />
    <glyph glyph-name="Scaron" unicode="&#x160;" horiz-adv-x="541" 
d="M173 205q0 -20 8 -38t21.5 -32t32 -22.5t41.5 -8.5q51 0 79.5 24t28.5 66q0 21 -11 36.5t-29 28t-40.5 22.5t-45.5 19q-39 15 -74 32t-62 41t-42.5 58.5t-15.5 84.5q0 42 15.5 78.5t44 63.5t67 42.5t85.5 15.5t86 -15t66.5 -41t42.5 -62t15 -78h-130q-1 32 -23 54t-57 22
t-58.5 -22.5t-23.5 -57.5q0 -18 9.5 -32t25.5 -25.5t37.5 -21.5t44.5 -20q39 -18 76 -35t65 -40.5t45 -56t17 -80.5q0 -50 -18 -91t-50 -70t-75.5 -44.5t-94.5 -15.5q-50 0 -92.5 15.5t-73.5 44.5t-49 70t-18 91h130zM360 790h-178l-113 110h145l57 -60l57 60h145z" />
    <glyph glyph-name="scaron" unicode="&#x161;" horiz-adv-x="422" 
d="M147 170q1 -26 17 -47t48 -21q26 0 44.5 14t18.5 38q0 23 -23 34.5t-75 25.5q-26 7 -49.5 18t-42 28.5t-29 40.5t-10.5 54q0 36 13.5 64.5t36.5 48.5t54 30.5t66 10.5t66 -13t54 -35t36.5 -51t13.5 -60h-121q-1 23 -15.5 35.5t-33.5 12.5t-33.5 -12.5t-14.5 -30.5
q0 -22 23 -35t81 -29q26 -7 48.5 -18t39 -27t26 -38.5t9.5 -53.5q0 -33 -14.5 -62.5t-39 -52t-58 -35.5t-71.5 -13q-36 0 -68.5 13t-57.5 36.5t-41 56.5t-18 73h120zM312 590h-178l-113 110h145l57 -60l57 60h145z" />
    <glyph glyph-name="Tcommaaccent" unicode="&#x162;" horiz-adv-x="526" 
d="M198 580h-188v120h506v-120h-188v-580h-130v580zM206 -217q15 3 24 10.5t14 15.5t6.5 16.5t1.5 14.5h-46v100h112v-98q0 -37 -32 -62t-80 -30v33z" />
    <glyph glyph-name="tcommaaccent" unicode="&#x163;" horiz-adv-x="334" 
d="M84 631h120v-131h100v-114h-100v-210q0 -62 59 -62h41v-114h-57q-76 0 -119.5 39t-43.5 133v214h-74v114h74v131zM152 -217q15 3 24 10.5t14 15.5t6.5 16.5t1.5 14.5h-46v100h112v-98q0 -37 -32 -62t-80 -30v33z" />
    <glyph glyph-name="Tcaron" unicode="&#x164;" horiz-adv-x="526" 
d="M198 580h-188v120h506v-120h-188v-580h-130v580zM351 790h-178l-113 110h145l57 -60l57 60h145z" />
    <glyph glyph-name="tcaron" unicode="&#x165;" horiz-adv-x="435" 
d="M314 543q15 3 24 10.5t14 15.5t6.5 16.5t1.5 14.5h-46v100h112v-98q0 -37 -32 -62t-80 -30v33zM84 631h120v-131h100v-114h-100v-210q0 -62 59 -62h41v-114h-57q-76 0 -119.5 39t-43.5 133v214h-74v114h74v131z" />
    <glyph glyph-name="Tbar" unicode="&#x166;" horiz-adv-x="526" 
d="M198 580h-188v120h506v-120h-188v-172h120v-116h-120v-292h-130v292h-120v116h120v172z" />
    <glyph glyph-name="tbar" unicode="&#x167;" horiz-adv-x="334" 
d="M84 631h120v-131h100v-114h-100v-56h100v-98h-100v-56q0 -62 59 -62h41v-114h-57q-76 0 -119.5 39t-43.5 133v60h-74v98h74v56h-74v114h74v131z" />
    <glyph glyph-name="Utilde" unicode="&#x168;" horiz-adv-x="672" 
d="M60 700h132v-426q0 -81 36 -124t108 -43t107 43t35 124v426h134v-438q0 -65 -19.5 -116.5t-55.5 -87.5t-87 -55t-114 -19t-114 19t-87 55t-55.5 87.5t-19.5 116.5v438zM138 758q0 20 6 45t20 47.5t38.5 38t60.5 15.5q28 0 45.5 -8.5t30 -18t23.5 -18t27 -8.5q7 0 11.5 5
t7.5 12.5t4.5 16t1.5 15.5h99q0 -17 -5.5 -41.5t-19 -47.5t-37 -39.5t-60.5 -16.5q-23 0 -40.5 8.5t-32 18t-27.5 18t-26 8.5q-15 0 -21.5 -17t-6.5 -33h-99z" />
    <glyph glyph-name="utilde" unicode="&#x169;" horiz-adv-x="568" 
d="M398 0v36q-26 -20 -59.5 -33t-69.5 -13q-116 0 -167.5 62.5t-51.5 177.5v270h122v-270q0 -29 4.5 -52t16.5 -39t32 -25t51 -9t53.5 9t37 20t31.5 36v330h120v-500h-120zM98 558q0 20 6 45t20 47.5t38.5 38t60.5 15.5q28 0 45.5 -8.5t30 -18t23.5 -18t27 -8.5q7 0 11.5 5
t7.5 12.5t4.5 16t1.5 15.5h99q0 -17 -5.5 -41.5t-19 -47.5t-37 -39.5t-60.5 -16.5q-23 0 -40.5 8.5t-32 18t-27.5 18t-26 8.5q-15 0 -21.5 -17t-6.5 -33h-99z" />
    <glyph glyph-name="Umacron" unicode="&#x16a;" horiz-adv-x="672" 
d="M60 700h132v-426q0 -81 36 -124t108 -43t107 43t35 124v426h134v-438q0 -65 -19.5 -116.5t-55.5 -87.5t-87 -55t-114 -19t-114 19t-87 55t-55.5 87.5t-19.5 116.5v438zM170 900h317v-98h-317v98z" />
    <glyph glyph-name="umacron" unicode="&#x16b;" horiz-adv-x="568" 
d="M398 0v36q-26 -20 -59.5 -33t-69.5 -13q-116 0 -167.5 62.5t-51.5 177.5v270h122v-270q0 -29 4.5 -52t16.5 -39t32 -25t51 -9t53.5 9t37 20t31.5 36v330h120v-500h-120zM122 700h317v-98h-317v98z" />
    <glyph glyph-name="Ubreve" unicode="&#x16c;" horiz-adv-x="672" 
d="M60 700h132v-426q0 -81 36 -124t108 -43t107 43t35 124v426h134v-438q0 -65 -19.5 -116.5t-55.5 -87.5t-87 -55t-114 -19t-114 19t-87 55t-55.5 87.5t-19.5 116.5v438zM251 900q8 -27 28.5 -44.5t43.5 -17.5q26 0 47 17.5t33 44.5h110q-10 -35 -29 -62.5t-44 -46.5
t-55 -29t-62 -10t-61.5 10t-54.5 29t-44 46.5t-29 62.5h117z" />
    <glyph glyph-name="ubreve" unicode="&#x16d;" horiz-adv-x="568" 
d="M398 0v36q-26 -20 -59.5 -33t-69.5 -13q-116 0 -167.5 62.5t-51.5 177.5v270h122v-270q0 -29 4.5 -52t16.5 -39t32 -25t51 -9t53.5 9t37 20t31.5 36v330h120v-500h-120zM204 700q8 -27 28.5 -44.5t43.5 -17.5q26 0 47 17.5t33 44.5h110q-10 -35 -29 -62.5t-44 -46.5
t-55 -29t-62 -10t-61.5 10t-54.5 29t-44 46.5t-29 62.5h117z" />
    <glyph glyph-name="Uring" unicode="&#x16e;" horiz-adv-x="672" 
d="M60 700h132v-426q0 -81 36 -124t108 -43t107 43t35 124v426h134v-438q0 -65 -19.5 -116.5t-55.5 -87.5t-87 -55t-114 -19t-114 19t-87 55t-55.5 87.5t-19.5 116.5v438zM335 788q15 0 25 10.5t10 25.5t-10 25.5t-25 10.5t-25 -10.5t-10 -25.5t10 -25.5t25 -10.5zM233 824
q0 44 29 73t73 29t73 -29t29 -73t-29 -73t-73 -29t-73 29t-29 73z" />
    <glyph glyph-name="uring" unicode="&#x16f;" horiz-adv-x="568" 
d="M398 0v36q-26 -20 -59.5 -33t-69.5 -13q-116 0 -167.5 62.5t-51.5 177.5v270h122v-270q0 -29 4.5 -52t16.5 -39t32 -25t51 -9t53.5 9t37 20t31.5 36v330h120v-500h-120zM292 588q15 0 25 10.5t10 25.5t-10 25.5t-25 10.5t-25 -10.5t-10 -25.5t10 -25.5t25 -10.5zM190 624
q0 44 29 73t73 29t73 -29t29 -73t-29 -73t-73 -29t-73 29t-29 73z" />
    <glyph glyph-name="Uhungarumlaut" unicode="&#x170;" horiz-adv-x="672" 
d="M60 700h132v-426q0 -81 36 -124t108 -43t107 43t35 124v426h134v-438q0 -65 -19.5 -116.5t-55.5 -87.5t-87 -55t-114 -19t-114 19t-87 55t-55.5 87.5t-19.5 116.5v438zM246 900h149l-121 -110h-146zM461 900h149l-121 -110h-146z" />
    <glyph glyph-name="uhungarumlaut" unicode="&#x171;" horiz-adv-x="568" 
d="M398 0v36q-26 -20 -59.5 -33t-69.5 -13q-116 0 -167.5 62.5t-51.5 177.5v270h122v-270q0 -29 4.5 -52t16.5 -39t32 -25t51 -9t53.5 9t37 20t31.5 36v330h120v-500h-120zM196 700h149l-121 -110h-146zM411 700h149l-121 -110h-146z" />
    <glyph glyph-name="Uogonek" unicode="&#x172;" horiz-adv-x="672" 
d="M60 700h132v-426q0 -81 36 -124t108 -43t107 43t35 124v426h134v-438q0 -65 -19.5 -116.5t-55.5 -87.5t-87 -55t-114 -19t-114 19t-87 55t-55.5 87.5t-19.5 116.5v438zM340 -200q-48 0 -72 21t-24 55q0 25 12 44t27 32l60 48h75l-63 -85q-6 -8 -9.5 -13.5t-3.5 -11.5
q0 -5 3.5 -10t13.5 -5h24v-75h-43z" />
    <glyph glyph-name="uogonek" unicode="&#x173;" horiz-adv-x="568" 
d="M398 0v36q-26 -20 -59.5 -33t-69.5 -13q-116 0 -167.5 62.5t-51.5 177.5v270h122v-270q0 -29 4.5 -52t16.5 -39t32 -25t51 -9t53.5 9t37 20t31.5 36v330h120v-500h-120zM420 -200q-48 0 -72 21t-24 55q0 25 12 44t27 32l60 48h75l-63 -85q-6 -8 -9.5 -13.5t-3.5 -11.5
q0 -5 3.5 -10t13.5 -5h24v-75h-43z" />
    <glyph glyph-name="Wcircumflex" unicode="&#x174;" horiz-adv-x="990" 
d="M0 700h140l187 -438l180 468l197 -465l167 435h139l-305 -735l-197 442l-180 -442zM417 900h178l113 -110h-145l-57 60l-57 -60h-145z" />
    <glyph glyph-name="wcircumflex" unicode="&#x175;" horiz-adv-x="776" 
d="M-5 500h135l130 -276l130 291l138 -291l125 276h128l-254 -520l-137 267l-130 -267zM301 700h178l113 -110h-145l-57 60l-57 -60h-145z" />
    <glyph glyph-name="Ycircumflex" unicode="&#x176;" horiz-adv-x="642" 
d="M257 303l-257 397h153l169 -270l169 270h151l-255 -398v-302h-130v303zM235 900h178l113 -110h-145l-57 60l-57 -60h-145z" />
    <glyph glyph-name="ycircumflex" unicode="&#x177;" horiz-adv-x="521" 
d="M40 -64h22q24 0 42 8.5t34 40.5l61 122l-204 393h135l131 -268l133 268h132l-248 -500l-37 -71q-20 -40 -41 -62t-43 -32t-44.5 -12t-46.5 -2h-26v115zM176 700h178l113 -110h-145l-57 60l-57 -60h-145z" />
    <glyph glyph-name="Zacute" unicode="&#x179;" horiz-adv-x="623" 
d="M372 580h-315v120h544l-371 -580h373v-120h-603zM495 900l-118 -110h-149l121 110h146z" />
    <glyph glyph-name="zacute" unicode="&#x17a;" horiz-adv-x="483" 
d="M269 386h-210v114h424l-260 -386h260v-114h-473zM475 700l-118 -110h-149l121 110h146z" />
    <glyph glyph-name="Zdotaccent" unicode="&#x17b;" horiz-adv-x="623" 
d="M372 580h-315v120h544l-371 -580h373v-120h-603zM256 900h130v-119h-130v119z" />
    <glyph glyph-name="zdotaccent" unicode="&#x17c;" horiz-adv-x="483" 
d="M269 386h-210v114h424l-260 -386h260v-114h-473zM184 700h130v-119h-130v119z" />
    <glyph glyph-name="Zcaron" unicode="&#x17d;" horiz-adv-x="623" 
d="M372 580h-315v120h544l-371 -580h373v-120h-603zM401 790h-178l-113 110h145l57 -60l57 60h145z" />
    <glyph glyph-name="zcaron" unicode="&#x17e;" horiz-adv-x="483" 
d="M269 386h-210v114h424l-260 -386h260v-114h-473zM314 590h-178l-113 110h145l57 -60l57 60h145z" />
    <glyph glyph-name="Scommaaccent" unicode="&#x218;" horiz-adv-x="541" 
d="M173 205q0 -20 8 -38t21.5 -32t32 -22.5t41.5 -8.5q51 0 79.5 24t28.5 66q0 21 -11 36.5t-29 28t-40.5 22.5t-45.5 19q-39 15 -74 32t-62 41t-42.5 58.5t-15.5 84.5q0 42 15.5 78.5t44 63.5t67 42.5t85.5 15.5t86 -15t66.5 -41t42.5 -62t15 -78h-130q-1 32 -23 54t-57 22
t-58.5 -22.5t-23.5 -57.5q0 -18 9.5 -32t25.5 -25.5t37.5 -21.5t44.5 -20q39 -18 76 -35t65 -40.5t45 -56t17 -80.5q0 -50 -18 -91t-50 -70t-75.5 -44.5t-94.5 -15.5q-50 0 -92.5 15.5t-73.5 44.5t-49 70t-18 91h130zM222 -217q15 3 24 10.5t14 15.5t6.5 16.5t1.5 14.5h-46
v100h112v-98q0 -37 -32 -62t-80 -30v33z" />
    <glyph glyph-name="scommaaccent" unicode="&#x219;" horiz-adv-x="422" 
d="M147 170q1 -26 17 -47t48 -21q26 0 44.5 14t18.5 38q0 23 -23 34.5t-75 25.5q-26 7 -49.5 18t-42 28.5t-29 40.5t-10.5 54q0 36 13.5 64.5t36.5 48.5t54 30.5t66 10.5t66 -13t54 -35t36.5 -51t13.5 -60h-121q-1 23 -15.5 35.5t-33.5 12.5t-33.5 -12.5t-14.5 -30.5
q0 -22 23 -35t81 -29q26 -7 48.5 -18t39 -27t26 -38.5t9.5 -53.5q0 -33 -14.5 -62.5t-39 -52t-58 -35.5t-71.5 -13q-36 0 -68.5 13t-57.5 36.5t-41 56.5t-18 73h120zM163 -217q15 3 24 10.5t14 15.5t6.5 16.5t1.5 14.5h-46v100h112v-98q0 -37 -32 -62t-80 -30v33z" />
    <glyph glyph-name="uni021A" unicode="&#x21a;" horiz-adv-x="526" 
d="M198 580h-188v120h506v-120h-188v-580h-130v580zM207 -217q15 3 24 10.5t14 15.5t6.5 16.5t1.5 14.5h-46v100h112v-98q0 -37 -32 -62t-80 -30v33z" />
    <glyph glyph-name="uni021B" unicode="&#x21b;" horiz-adv-x="334" 
d="M84 631h120v-131h100v-114h-100v-210q0 -62 59 -62h41v-114h-57q-76 0 -119.5 39t-43.5 133v214h-74v114h74v131zM152 -217q15 3 24 10.5t14 15.5t6.5 16.5t1.5 14.5h-46v100h112v-98q0 -37 -32 -62t-80 -30v33z" />
    <glyph glyph-name="dotlessj" unicode="&#x237;" horiz-adv-x="227" 
d="M-30 -200v114h17q13 0 25.5 3.5t22.5 12.5t16 24t6 38v508h120v-504q0 -54 -13.5 -91.5t-36.5 -60.5t-54 -33.5t-66 -10.5h-37z" />
    <glyph glyph-name="Wgrave" unicode="&#x1e80;" horiz-adv-x="990" 
d="M0 700h140l187 -438l180 468l197 -465l167 435h139l-305 -735l-197 442l-180 -442zM515 900l121 -110h-149l-118 110h146z" />
    <glyph glyph-name="wgrave" unicode="&#x1e81;" horiz-adv-x="776" 
d="M-5 500h135l130 -276l130 291l138 -291l125 276h128l-254 -520l-137 267l-130 -267zM398 700l121 -110h-149l-118 110h146z" />
    <glyph glyph-name="Wacute" unicode="&#x1e82;" horiz-adv-x="990" 
d="M0 700h140l187 -438l180 468l197 -465l167 435h139l-305 -735l-197 442l-180 -442zM640 900l-118 -110h-149l121 110h146z" />
    <glyph glyph-name="wacute" unicode="&#x1e83;" horiz-adv-x="776" 
d="M-5 500h135l130 -276l130 291l138 -291l125 276h128l-254 -520l-137 267l-130 -267zM529 700l-118 -110h-149l121 110h146z" />
    <glyph glyph-name="Wdieresis" unicode="&#x1e84;" horiz-adv-x="990" 
d="M0 700h140l187 -438l180 468l197 -465l167 435h139l-305 -735l-197 442l-180 -442zM335 900h130v-119h-130v119zM545 900h130v-119h-130v119z" />
    <glyph glyph-name="wdieresis" unicode="&#x1e85;" horiz-adv-x="776" 
d="M-5 500h135l130 -276l130 291l138 -291l125 276h128l-254 -520l-137 267l-130 -267zM220 700h130v-119h-130v119zM430 700h130v-119h-130v119z" />
    <glyph glyph-name="Ygrave" unicode="&#x1ef2;" horiz-adv-x="642" 
d="M257 303l-257 397h153l169 -270l169 270h151l-255 -398v-302h-130v303zM305 900l121 -110h-149l-118 110h146z" />
    <glyph glyph-name="ygrave" unicode="&#x1ef3;" horiz-adv-x="521" 
d="M40 -64h22q24 0 42 8.5t34 40.5l61 122l-204 393h135l131 -268l133 268h132l-248 -500l-37 -71q-20 -40 -41 -62t-43 -32t-44.5 -12t-46.5 -2h-26v115zM242 700l121 -110h-149l-118 110h146z" />
    <glyph glyph-name="foursuperior" unicode="&#x2074;" horiz-adv-x="417" 
d="M179 707h110l-117 -238h103v101h96v-292h-96v99h-257z" />
    <glyph glyph-name="afii61289" unicode="&#x2113;" horiz-adv-x="339" 
d="M52 277h-46v79h46v210q0 70 38.5 107t99.5 37q28 0 55 -10.5t47 -32t32.5 -54t12.5 -75.5q0 -47 -12.5 -86.5t-35 -70.5t-52.5 -54t-65 -37v-114q0 -35 12 -48.5t42 -13.5h26v-114h-36q-76 0 -120 39.5t-44 131.5v106zM172 392q28 31 36.5 71t8.5 75q0 25 -6 41.5
t-19 16.5q-8 0 -14 -7t-6 -24v-173z" />
    <glyph glyph-name="estimated" unicode="&#x212e;" horiz-adv-x="553" 
d="M151 77q23 -18 53.5 -29t68.5 -11q36 0 64.5 9t51.5 23.5t40.5 34t30.5 40.5h57q-18 -34 -44 -62.5t-58 -48.5t-68 -31.5t-74 -11.5q-54 0 -100.5 20.5t-80 55.5t-53 82.5t-19.5 101.5t19.5 101.5t53 82.5t80 55.5t100.5 20.5q58 0 106 -21.5t82 -61t53 -95t19 -124.5
h-382v-131zM397 255v167q-25 20 -55.5 30.5t-68.5 10.5q-37 0 -67.5 -12t-54.5 -32v-164h246z" />
    <glyph glyph-name="onequarter" unicode="&#xbc;" horiz-adv-x="791" 
d="M120 609h-70v91h165v-429h-95v338zM549 431h110l-117 -238h103v101h96v-292h-96v99h-257zM485 700h112l-355 -700h-111z" />
    <glyph glyph-name="onehalf" unicode="&#xbd;" horiz-adv-x="821" 
d="M120 609h-70v91h165v-429h-95v338zM647 248q11 14 17 26.5t6 25.5q0 19 -11.5 32.5t-31.5 13.5q-21 0 -32 -14.5t-11 -38.5h-96q0 31 11 58t29.5 46.5t44 30.5t54.5 11t54.5 -10t44 -28.5t29 -44t10.5 -56.5q0 -32 -13 -59t-37 -58l-69 -88h125v-93h-317zM503 700h112
l-355 -700h-111z" />
    <glyph glyph-name="threequarters" unicode="&#xbe;" horiz-adv-x="819" 
d="M146 416q0 -24 12 -38.5t31 -14.5t31.5 13t12.5 32q0 20 -13.5 35t-43.5 15v85q27 0 38 13t11 29q0 15 -10 26.5t-26 11.5q-20 0 -28 -14t-8 -32h-94q0 33 10 58.5t28 43t41.5 27t50.5 9.5t51 -10t41.5 -28t27.5 -41.5t10 -50.5q0 -26 -8.5 -46.5t-23.5 -36.5
q17 -19 28.5 -43t11.5 -51q0 -28 -10.5 -53t-29.5 -44t-44 -30t-54 -11t-54.5 10t-44 29t-29.5 46t-11 61h96zM577 431h110l-117 -238h103v101h96v-292h-96v99h-257zM541 700h112l-355 -700h-111z" />
    <glyph glyph-name="minus" unicode="&#x2212;" 
d="M60 321h450v-114h-450v114z" />
    <glyph glyph-name="uni2215" unicode="&#x2215;" horiz-adv-x="220" 
d="M220 700h112l-355 -700h-111z" />
    <glyph glyph-name="f_f" unicode="&#xfb00;" horiz-adv-x="648" 
d="M84 386h-74v114h74v18q0 46 13 80t36 56.5t54.5 34t69.5 11.5h47v-114h-37q-11 0 -22 -3.5t-20 -11t-15 -19t-6 -28.5v-24h204v18q0 46 13 80t36 56.5t54.5 34t69.5 11.5h47v-114h-37q-11 0 -22 -3.5t-20 -11t-15 -19t-6 -28.5v-24h100v-114h-100v-386h-120v386h-204
v-386h-120v386z" />
    <glyph glyph-name="f_i" horiz-adv-x="544" 
d="M84 386h-74v114h74v18q0 46 13 80t36 56.5t54.5 34t69.5 11.5h47v-114h-37q-11 0 -22 -3.5t-20 -11t-15 -19t-6 -28.5v-24h290v-500h-120v386h-170v-386h-120v386zM374 700h120v-120h-120v120z" />
    <glyph glyph-name="f_l" horiz-adv-x="544" 
d="M84 386h-74v114h74v18q0 46 13 80t36 56.5t54.5 34t69.5 11.5h237v-700h-120v586h-107q-11 0 -22 -3.5t-20 -11t-15 -19t-6 -28.5v-24h100v-114h-100v-386h-120v386z" />
    <glyph glyph-name="f_f_i" unicode="&#xfb03;" horiz-adv-x="868" 
d="M84 386h-74v114h74v18q0 46 13 80t36 56.5t54.5 34t69.5 11.5h47v-114h-37q-11 0 -22 -3.5t-20 -11t-15 -19t-6 -28.5v-24h204v18q0 46 13 80t36 56.5t54.5 34t69.5 11.5h47v-114h-37q-11 0 -22 -3.5t-20 -11t-15 -19t-6 -28.5v-24h290v-500h-120v386h-170v-386h-120v386
h-204v-386h-120v386zM698 700h120v-120h-120v120z" />
    <glyph glyph-name="f_f_l" unicode="&#xfb04;" horiz-adv-x="868" 
d="M84 386h-74v114h74v18q0 46 13 80t36 56.5t54.5 34t69.5 11.5h47v-114h-37q-11 0 -22 -3.5t-20 -11t-15 -19t-6 -28.5v-24h204v18q0 46 13 80t36 56.5t54.5 34t69.5 11.5h237v-700h-120v586h-107q-11 0 -22 -3.5t-20 -11t-15 -19t-6 -28.5v-24h100v-114h-100v-386h-120
v386h-204v-386h-120v386z" />
    <glyph glyph-name="hungarumlaut.cap" horiz-adv-x="516" 
d="M173 700h114l-131 -110h-111zM363 700h114l-131 -110h-111z" />
    <glyph glyph-name="tilde.cap" horiz-adv-x="503" 
d="M65 577q0 18 5.5 40t19 41.5t36.5 32.5t57 13q32 0 53 -10.5t35 -21.5l8 -6q8 -7 17 -12t20 -5q21 0 30 18t9 33h78q0 -15 -5 -36.5t-18 -41.5t-35.5 -34t-56.5 -14q-25 0 -47 10t-37 21l-7 5q-10 8 -19.5 13.5t-22.5 5.5q-24 0 -33 -17.5t-9 -34.5h-78z" />
    <glyph glyph-name="ring.cap" horiz-adv-x="335" 
d="M168 588q15 0 25 10.5t10 25.5t-10 25.5t-25 10.5t-25 -10.5t-10 -25.5t10 -25.5t25 -10.5zM72 624q0 41 27.5 68.5t68.5 27.5t68.5 -27.5t27.5 -68.5t-27.5 -68.5t-68.5 -27.5t-68.5 27.5t-27.5 68.5z" />
    <glyph glyph-name="caron.cap" horiz-adv-x="516" 
d="M191 700l67 -61l68 61h110l-123 -110h-108l-123 110h109z" />
    <glyph glyph-name="macron.cap" horiz-adv-x="503" 
d="M68 700h367v-78h-367v78z" />
    <glyph glyph-name="dieresis.cap" horiz-adv-x="490" 
d="M105 700h100v-100h-100v100zM285 700h100v-100h-100v100z" />
    <glyph glyph-name="dotaccent.cap" horiz-adv-x="335" 
d="M130 700h95v-95h-95v95z" />
    <glyph glyph-name="circumflex.cap" horiz-adv-x="515" 
d="M205 700h108l123 -110h-110l-67 60l-67 -60h-110z" />
    <glyph glyph-name="acute.cap" horiz-adv-x="398" 
d="M203 700h114l-131 -110h-111z" />
    <glyph glyph-name="grave.cap" horiz-adv-x="398" 
d="M186 700l131 -110h-114l-128 110h111z" />
    <glyph glyph-name="breve.cap" horiz-adv-x="502" 
d="M158 700q10 -32 34 -53t53 -21q32 0 56.5 21t36.5 53h89q-19 -71 -69 -110t-113 -39q-61 0 -111 39t-69 110h93z" />
    <glyph glyph-name="caron.alt" horiz-adv-x="516" 
d="M191 700l67 -61l68 61h110l-123 -110h-108l-123 110h109z" />
    <glyph glyph-name="commaaccent" horiz-adv-x="220" 
d="M59 -217q15 3 24 10.5t14 15.5t6.5 16.5t1.5 14.5h-46v100h112v-98q0 -37 -32 -62t-80 -30v33z" />
    <glyph glyph-name="revcommaaccent" horiz-adv-x="220" 
d="M166 720q-15 -3 -24 -10.5t-14 -15.5t-6.5 -16.5t-1.5 -14.5h46v-100h-112v98q0 37 32 62t80 30v-33z" />
    <glyph glyph-name="apple" horiz-adv-x="740" 
d="M256 -22q-69 0 -133 115q-66 114 -66 224q0 100 50 165t126 65q31 0 79 -14q45 -13 61 -13q20 0 64 15q42 16 77 16q53 0 94 -29q25 -17 47 -45q-36 -32 -50 -52q-29 -43 -29 -92q0 -56 30 -99q30 -44 70 -57q-17 -53 -54 -111q-59 -87 -115 -87q-22 0 -62 15
q-42 14 -67 14q-27 0 -63 -15t-59 -15zM406 545q-7 -2 -18 -4t-27 -3q1 66 34 114t111 66q2 -6 2.5 -10.5t0.5 -8.5q0 -27 -13 -60t-41 -62q-27 -24 -49 -32z" />
    <glyph glyph-name="commaaccent.alt" horiz-adv-x="220" 
d="M70 -217q13 3 21.5 10.5t13 15.5t6 16.5t1.5 14.5h-42v100h90v-100q0 -35 -26 -60t-64 -30v33z" />
    </font>
</defs>
</svg>
